{"glyphs":{"0":{"ha":1521,"x_min":218,"x_max":1303,"o":"m 981 1047 l 1303 725 l 1085 507 l 1301 292 l 975 -35 l 438 503 l 981 1047 m 1028 699 l 1101 772 l 1028 846 l 954 772 l 1028 699 m 218 721 l 438 503 l 218 283 l 218 721 z "},"1":{"ha":1288,"x_min":29,"x_max":1258,"o":"m 29 721 l 644 1169 l 1258 721 l 1024 0 l 264 0 l 29 721 m 644 131 l 922 131 l 1099 669 l 644 1001 l 189 669 l 364 132 l 644 525 l 644 131 z "},"2":{"ha":1547,"x_min":68,"x_max":1479,"o":"m 861 72 q 895 109 872 96 q 944 122 918 122 q 1009 95 982 122 q 1036 29 1036 68 q 1009 -35 1036 -8 q 944 -62 982 -62 q 897 -49 918 -62 q 863 -14 875 -35 l 686 -14 q 653 -49 675 -35 q 606 -62 632 -62 q 540 -35 567 -62 q 513 29 513 -8 q 540 95 513 68 q 606 122 567 122 q 654 109 633 122 q 686 72 675 96 l 861 72 m 279 583 q 307 650 279 622 q 374 678 335 678 q 438 650 411 678 q 464 583 464 622 q 438 519 464 546 q 374 493 411 493 q 307 519 335 493 q 279 583 279 546 m 222 224 q 104 260 140 224 q 68 378 68 296 l 68 792 q 104 909 68 872 q 222 946 140 946 l 299 946 l 299 1000 q 344 1149 299 1103 q 493 1194 390 1194 l 1054 1194 q 1203 1149 1157 1194 q 1249 1000 1249 1103 l 1249 946 l 1325 946 q 1443 909 1407 946 q 1479 792 1479 872 l 1479 378 q 1443 260 1479 296 q 1325 224 1407 224 l 1249 224 l 1249 -131 q 1203 -279 1249 -233 q 1054 -325 1157 -325 l 493 -325 q 344 -279 390 -325 q 299 -131 299 -233 l 299 224 l 222 224 m 1083 583 q 1110 650 1083 622 q 1176 678 1138 678 q 1241 650 1214 678 q 1268 583 1268 622 q 1241 519 1268 546 q 1176 493 1214 493 q 1110 519 1138 493 q 1083 583 1083 546 m 519 333 q 549 340 542 333 q 556 368 556 347 l 556 800 q 549 828 556 821 q 519 835 542 835 l 222 835 q 194 828 201 835 q 188 800 188 821 l 188 368 q 194 340 188 347 q 222 333 201 333 l 519 333 m 429 -143 q 444 -191 429 -176 q 492 -206 460 -206 l 1056 -206 q 1103 -191 1088 -206 q 1118 -143 1118 -176 l 1118 224 l 1025 224 q 908 260 944 224 q 871 378 871 296 l 871 792 q 908 909 871 872 q 1025 946 944 946 l 1118 946 l 1118 1013 q 1103 1060 1118 1046 q 1056 1075 1088 1075 l 492 1075 q 444 1060 460 1075 q 429 1013 429 1046 l 429 946 l 522 946 q 640 909 603 946 q 676 792 676 872 l 676 378 q 640 260 676 296 q 522 224 603 224 l 429 224 l 429 -143 m 1324 333 q 1353 340 1346 333 q 1360 368 1360 347 l 1360 800 q 1353 828 1360 821 q 1324 835 1346 835 l 1026 835 q 998 828 1006 835 q 990 800 990 821 l 990 368 q 998 340 990 347 q 1026 333 1006 333 l 1324 333 z "},"3":{"ha":1389,"x_min":29,"x_max":1360,"o":"m 29 576 l 361 1153 l 1028 1153 l 1360 576 l 1028 0 l 361 0 l 29 576 m 953 132 l 1208 576 l 951 1022 l 438 1022 l 181 576 l 438 131 l 679 583 l 953 132 z "},"4":{"ha":1213,"x_min":68,"x_max":1144,"o":"m 68 593 q 110 803 68 706 q 226 974 153 901 q 397 1090 299 1047 q 607 1132 494 1132 q 816 1090 718 1132 q 987 974 914 1047 q 1102 803 1060 901 q 1144 593 1144 706 q 1102 383 1144 481 q 987 212 1060 285 q 816 97 914 139 q 607 54 718 54 q 397 97 494 54 q 226 212 299 139 q 110 383 153 285 q 68 593 68 481 m 408 511 l 325 592 l 408 674 l 408 792 l 526 792 l 607 874 l 689 792 l 807 792 l 807 674 l 890 592 l 807 511 l 807 392 l 689 392 l 607 310 l 526 392 l 408 392 l 408 511 m 607 171 q 770 204 694 171 q 902 295 846 238 q 991 429 958 353 q 1024 593 1024 506 q 991 757 1024 681 q 902 891 958 833 q 770 982 846 949 q 607 1015 694 1015 q 443 982 519 1015 q 310 891 367 949 q 222 757 254 833 q 189 593 189 681 q 222 429 189 506 q 310 295 254 353 q 443 204 367 238 q 607 171 519 171 z "},"5":{"ha":1201,"x_min":68,"x_max":1135,"o":"m 224 421 l 68 576 l 224 732 l 224 954 l 446 954 l 601 1110 l 757 954 l 979 954 l 979 732 l 1135 576 l 979 421 l 979 199 l 757 199 l 601 43 l 446 199 l 224 199 l 224 421 z "},"6":{"ha":1213,"x_min":68,"x_max":1144,"o":"m 68 576 q 110 787 68 689 q 226 958 153 885 q 397 1073 299 1031 q 607 1115 494 1115 q 816 1073 718 1115 q 987 958 914 1031 q 1102 787 1060 885 q 1144 576 1144 689 q 1102 366 1144 464 q 987 195 1060 268 q 816 80 914 122 q 607 38 718 38 q 397 80 494 38 q 226 195 299 122 q 110 366 153 268 q 68 576 68 464 m 513 575 l 356 733 l 450 828 l 607 669 l 767 829 l 860 735 l 701 575 l 860 418 l 764 324 l 607 482 l 449 322 l 354 417 l 513 575 m 607 154 q 770 188 694 154 q 902 278 846 221 q 991 413 958 336 q 1024 576 1024 489 q 991 740 1024 664 q 902 874 958 817 q 770 965 846 932 q 607 999 694 999 q 443 965 519 999 q 310 874 367 932 q 222 740 254 817 q 189 576 189 664 q 222 413 189 489 q 310 278 254 336 q 443 188 367 221 q 607 154 519 154 z "},"7":{"ha":1253,"x_min":29,"x_max":1224,"o":"m 29 415 l 147 933 l 626 1165 l 1107 933 l 1224 415 l 893 0 l 361 0 l 29 415 m 615 549 l 833 125 l 1089 447 l 999 849 l 626 1028 l 256 849 l 164 447 l 421 125 l 615 549 z "},"8":{"ha":1213,"x_min":68,"x_max":1144,"o":"m 68 593 q 110 803 68 706 q 226 974 153 901 q 397 1090 299 1047 q 607 1132 494 1132 q 816 1090 718 1132 q 987 974 914 1047 q 1102 803 1060 901 q 1144 593 1144 706 q 1102 383 1144 481 q 987 212 1060 285 q 816 97 914 139 q 607 54 718 54 q 397 97 494 54 q 226 212 299 139 q 110 383 153 285 q 68 593 68 481 m 607 171 q 770 204 694 171 q 902 295 846 238 q 991 429 958 353 q 1024 593 1024 506 q 991 757 1024 681 q 902 891 958 833 q 770 982 846 949 q 607 1015 694 1015 q 443 982 519 1015 q 310 891 367 949 q 222 757 254 833 q 189 593 189 681 q 222 429 189 506 q 310 295 254 353 q 443 204 367 238 q 607 171 519 171 m 514 592 q 541 658 514 631 q 607 686 568 686 q 672 658 644 686 q 699 592 699 631 q 672 528 699 554 q 607 501 644 501 q 541 528 568 501 q 514 592 514 554 z "},"9":{"ha":1203,"x_min":68,"x_max":1136,"o":"m 600 57 q 393 99 490 57 q 224 213 296 140 q 110 383 151 286 q 68 590 68 481 q 110 799 68 701 q 224 969 151 896 q 393 1083 296 1042 q 600 1125 490 1125 q 808 1083 710 1125 q 978 969 906 1042 q 1094 799 1051 896 q 1136 590 1136 701 q 1094 383 1136 481 q 978 213 1051 286 q 808 99 906 140 q 600 57 710 57 m 500 349 l 600 249 l 700 349 l 840 349 l 840 490 l 940 590 l 840 690 l 840 832 l 700 832 l 600 932 l 500 832 l 360 832 l 360 690 l 260 590 l 360 490 l 360 349 l 500 349 z "},"\u0000":{"ha":0,"x_min":0,"x_max":0,"o":""}," ":{"ha":394,"x_min":0,"x_max":0,"o":""},"!":{"ha":253,"x_min":38,"x_max":218,"o":"m 56 872 l 56 1153 l 197 1153 l 197 872 l 172 250 l 79 250 l 56 872 m 38 81 q 65 144 38 118 q 129 171 92 171 q 192 144 165 171 q 218 81 218 118 q 192 18 218 44 q 129 -8 165 -8 q 65 18 92 -8 q 38 81 38 44 z "},"\"":{"ha":500,"x_min":65,"x_max":435,"o":"m 65 1194 l 207 1194 l 207 853 l 65 853 l 65 1194 m 293 1194 l 435 1194 l 435 853 l 293 853 l 293 1194 z "},"#":{"ha":815,"x_min":56,"x_max":760,"o":"m 169 268 l 56 268 l 71 388 l 186 388 l 219 636 l 106 636 l 121 756 l 236 756 l 272 1014 l 414 1014 l 378 756 l 503 756 l 539 1014 l 681 1014 l 646 756 l 760 756 l 743 636 l 629 636 l 596 388 l 710 388 l 694 268 l 579 268 l 544 0 l 401 0 l 438 268 l 313 268 l 276 0 l 135 0 l 169 268 m 453 388 l 486 636 l 361 636 l 328 388 l 453 388 z "},"$":{"ha":818,"x_min":65,"x_max":753,"o":"m 207 382 l 207 193 q 222 145 207 160 q 269 131 238 131 l 549 131 q 595 145 581 131 q 610 193 610 160 l 610 468 q 549 529 610 529 l 271 529 q 122 575 168 529 q 76 724 76 621 l 76 958 q 122 1107 76 1061 q 271 1153 168 1153 l 346 1153 l 346 1306 l 476 1306 l 476 1153 l 544 1153 q 693 1107 647 1153 q 739 958 739 1061 l 739 772 l 596 772 l 596 960 q 581 1008 596 993 q 535 1022 567 1022 l 281 1022 q 233 1008 249 1022 q 218 960 218 993 l 218 722 q 281 660 218 660 l 558 660 q 707 613 661 660 q 753 463 753 565 l 753 194 q 707 46 753 92 q 558 0 661 0 l 476 0 l 476 -153 l 346 -153 l 346 0 l 260 0 q 111 46 157 0 q 65 194 65 92 l 65 382 l 207 382 z "},"%":{"ha":1460,"x_min":65,"x_max":1383,"o":"m 921 1169 l 1032 1117 l 528 -17 l 415 36 l 921 1169 m 885 622 q 924 747 885 708 q 1049 785 963 785 l 1221 785 q 1345 747 1307 785 q 1383 622 1383 708 l 1383 163 q 1345 38 1383 76 q 1221 0 1307 0 l 1049 0 q 924 38 963 0 q 885 163 885 76 l 885 622 m 65 990 q 103 1115 65 1076 q 228 1153 142 1153 l 401 1153 q 526 1115 488 1153 q 564 990 564 1076 l 564 531 q 526 406 564 444 q 401 368 488 368 l 228 368 q 103 406 142 368 q 65 531 65 444 l 65 990 m 1221 111 q 1256 119 1247 111 q 1264 154 1264 128 l 1264 631 q 1256 665 1264 657 q 1221 674 1247 674 l 1049 674 q 1014 665 1022 674 q 1006 631 1006 657 l 1006 154 q 1014 119 1006 128 q 1049 111 1022 111 l 1221 111 m 400 479 q 436 488 428 479 q 444 522 444 496 l 444 999 q 436 1033 444 1025 q 400 1042 428 1042 l 229 1042 q 193 1033 201 1042 q 185 999 185 1025 l 185 522 q 193 488 185 496 q 229 479 201 479 l 400 479 z "},"&":{"ha":935,"x_min":76,"x_max":914,"o":"m 446 1001 q 431 1049 446 1035 q 383 1064 417 1064 l 281 1064 q 233 1049 249 1064 q 218 1001 218 1035 l 218 799 q 233 751 218 765 q 281 736 249 736 l 643 736 l 643 944 l 786 944 l 786 736 l 914 736 l 914 617 l 786 617 l 786 194 q 740 46 786 92 q 592 0 694 0 l 271 0 q 122 46 168 0 q 76 194 76 92 l 76 547 q 110 676 76 633 q 76 806 76 721 l 76 1000 q 122 1149 76 1103 q 271 1194 168 1194 l 394 1194 q 543 1149 497 1194 q 589 1000 589 1103 l 589 849 l 446 849 l 446 1001 m 281 617 q 233 602 249 617 q 218 554 218 588 l 218 193 q 233 145 218 160 q 281 131 249 131 l 582 131 q 628 145 614 131 q 643 193 643 160 l 643 617 l 281 617 z "},"'":{"ha":265,"x_min":61,"x_max":204,"o":"m 61 1194 l 204 1194 l 204 853 l 61 853 l 61 1194 z "},"(":{"ha":517,"x_min":76,"x_max":469,"o":"m 247 -119 q 117 -79 157 -119 q 76 51 76 -39 l 76 1024 q 117 1154 76 1114 q 247 1194 157 1194 l 469 1194 l 469 1075 l 296 1075 q 235 1059 251 1075 q 218 997 218 1043 l 218 78 q 235 16 218 32 q 296 0 251 0 l 469 0 l 469 -119 l 247 -119 z "},")":{"ha":517,"x_min":47,"x_max":440,"o":"m 47 0 l 221 0 q 283 16 267 0 q 299 78 299 32 l 299 997 q 283 1059 299 1043 q 221 1075 267 1075 l 47 1075 l 47 1194 l 269 1194 q 400 1154 360 1194 q 440 1024 440 1114 l 440 51 q 400 -79 440 -39 q 269 -119 360 -119 l 47 -119 l 47 0 z "},"*":{"ha":518,"x_min":67,"x_max":450,"o":"m 67 829 l 199 961 l 67 1092 l 126 1151 l 217 1063 l 217 1189 l 300 1189 l 300 1063 l 389 1151 l 450 1092 l 317 961 l 450 829 l 389 769 l 300 860 l 300 732 l 217 732 l 217 860 l 126 769 l 67 829 z "},"+":{"ha":789,"x_min":47,"x_max":742,"o":"m 47 706 l 317 706 l 317 874 l 458 874 l 458 706 l 742 706 l 742 586 l 458 586 l 458 418 l 317 418 l 317 586 l 47 586 l 47 706 z "},",":{"ha":257,"x_min":-119,"x_max":215,"o":"m 100 136 l 215 69 l -4 -306 l -119 -239 l 100 136 z "},"-":{"ha":546,"x_min":46,"x_max":499,"o":"m 46 532 l 499 532 l 499 413 l 46 413 l 46 532 z "},".":{"ha":249,"x_min":35,"x_max":215,"o":"m 35 81 q 62 144 35 118 q 126 171 89 171 q 189 144 163 171 q 215 81 215 118 q 189 18 215 44 q 126 -8 163 -8 q 62 18 89 -8 q 35 81 35 44 z "},"/":{"ha":428,"x_min":0,"x_max":433,"o":"m 300 1153 l 433 1153 l 135 -60 l 0 -60 l 300 1153 z "},":":{"ha":299,"x_min":35,"x_max":215,"o":"m 35 575 q 62 640 35 613 q 126 667 89 667 q 189 640 163 667 q 215 575 215 613 q 189 513 215 539 q 126 486 163 486 q 62 513 89 486 q 35 575 35 539 m 35 81 q 62 144 35 118 q 126 171 89 171 q 189 144 163 171 q 215 81 215 118 q 189 18 215 44 q 126 -8 163 -8 q 62 18 89 -8 q 35 81 35 44 z "},";":{"ha":247,"x_min":-117,"x_max":215,"o":"m 35 575 q 62 640 35 613 q 126 667 89 667 q 189 640 163 667 q 215 575 215 613 q 189 513 215 539 q 126 486 163 486 q 62 513 89 486 q 35 575 35 539 m 100 136 l 215 69 l -1 -301 l -117 -235 l 100 136 z "},"<":{"ha":582,"x_min":76,"x_max":506,"o":"m 76 572 l 506 788 l 506 646 l 188 486 l 506 325 l 506 183 l 76 400 l 76 572 z "},"=":{"ha":788,"x_min":47,"x_max":740,"o":"m 47 832 l 740 832 l 740 713 l 47 713 l 47 832 m 47 578 l 740 578 l 740 458 l 47 458 l 47 578 z "},">":{"ha":582,"x_min":76,"x_max":506,"o":"m 76 325 l 394 486 l 76 646 l 76 788 l 506 572 l 506 400 l 76 183 l 76 325 z "},"?":{"ha":778,"x_min":47,"x_max":713,"o":"m 231 81 q 258 144 231 118 q 322 171 285 171 q 384 144 358 171 q 410 81 410 118 q 384 18 410 44 q 322 -8 358 -8 q 258 18 285 -8 q 231 81 231 44 m 250 319 q 296 468 250 422 q 444 514 342 514 l 508 514 q 555 528 540 514 q 569 576 569 543 l 569 960 q 555 1008 569 993 q 508 1022 540 1022 l 251 1022 q 204 1008 219 1022 q 189 960 189 993 l 189 703 l 47 703 l 47 958 q 93 1107 47 1061 q 242 1153 139 1153 l 518 1153 q 667 1107 621 1153 q 713 958 713 1061 l 713 578 q 667 429 713 475 q 518 383 621 383 l 454 383 q 408 369 422 383 q 393 321 393 354 l 393 250 l 250 250 l 250 319 z "},"@":{"ha":1269,"x_min":82,"x_max":1189,"o":"m 750 944 q 881 904 840 944 q 921 774 921 864 l 921 628 l 1018 628 q 1149 588 1108 628 q 1189 457 1189 547 l 1189 -64 q 1149 -194 1189 -154 q 1018 -235 1108 -235 l 253 -235 q 122 -194 163 -235 q 82 -64 82 -154 l 82 1024 q 122 1154 82 1114 q 253 1194 163 1194 l 1088 1194 l 1088 1075 l 261 1075 q 214 1028 214 1075 l 214 -68 q 261 -115 214 -115 l 1010 -115 q 1058 -68 1058 -115 l 1058 460 q 1010 508 1058 508 l 921 508 l 921 171 q 881 40 921 81 q 750 0 840 0 l 521 0 q 390 40 431 0 q 350 171 350 81 l 350 457 q 390 588 350 547 q 521 628 431 628 l 790 628 l 790 778 q 743 825 790 825 l 529 825 q 481 778 481 825 l 481 697 l 350 697 l 350 774 q 390 904 350 864 q 521 944 431 944 l 750 944 m 529 508 q 481 460 481 508 l 481 167 q 529 119 481 119 l 743 119 q 790 167 790 119 l 790 508 l 529 508 z "},"A":{"ha":814,"x_min":8,"x_max":806,"o":"m 292 1153 l 524 1153 l 806 0 l 663 0 l 578 350 l 238 350 l 151 0 l 8 0 l 292 1153 m 546 481 l 407 1044 l 269 481 l 546 481 z "},"B":{"ha":829,"x_min":76,"x_max":764,"o":"m 76 1153 l 525 1153 q 674 1107 628 1153 q 719 958 719 1061 l 719 724 q 715 669 719 693 q 701 625 710 644 q 764 467 764 583 l 764 194 q 718 46 764 92 q 569 0 672 0 l 76 0 l 76 1153 m 560 131 q 606 145 592 131 q 621 193 621 160 l 621 468 q 560 529 621 529 l 311 529 l 311 660 l 515 660 q 576 722 576 660 l 576 960 q 562 1008 576 993 q 515 1022 547 1022 l 218 1022 l 218 131 l 560 131 z "},"C":{"ha":829,"x_min":76,"x_max":763,"o":"m 763 381 l 763 194 q 717 46 763 92 q 569 0 672 0 l 269 0 q 122 46 167 0 q 76 194 76 92 l 76 958 q 122 1107 76 1061 q 269 1153 167 1153 l 569 1153 q 717 1107 672 1153 q 763 958 763 1061 l 763 772 l 621 772 l 621 960 q 606 1008 621 993 q 558 1022 592 1022 l 281 1022 q 233 1008 247 1022 q 218 960 218 993 l 218 193 q 233 145 218 160 q 281 131 247 131 l 558 131 q 606 145 592 131 q 621 193 621 160 l 621 381 l 763 381 z "},"D":{"ha":835,"x_min":76,"x_max":764,"o":"m 76 1153 l 569 1153 q 718 1107 672 1153 q 764 958 764 1061 l 764 194 q 718 46 764 92 q 569 0 672 0 l 76 0 l 76 1153 m 560 131 q 606 145 592 131 q 621 193 621 160 l 621 960 q 606 1008 621 993 q 560 1022 592 1022 l 218 1022 l 218 131 l 560 131 z "},"E":{"ha":699,"x_min":76,"x_max":667,"o":"m 218 193 q 233 145 218 160 q 281 131 249 131 l 667 131 l 667 0 l 271 0 q 122 46 168 0 q 76 194 76 92 l 76 958 q 122 1107 76 1061 q 271 1153 168 1153 l 653 1153 l 653 1022 l 281 1022 q 233 1008 249 1022 q 218 960 218 993 l 218 660 l 507 660 l 507 529 l 218 529 l 218 193 z "},"F":{"ha":657,"x_min":76,"x_max":653,"o":"m 76 958 q 122 1107 76 1061 q 271 1153 168 1153 l 653 1153 l 653 1022 l 275 1022 q 218 965 218 1022 l 218 660 l 507 660 l 507 529 l 218 529 l 218 0 l 76 0 l 76 958 z "},"G":{"ha":832,"x_min":74,"x_max":761,"o":"m 308 660 l 761 660 l 761 194 q 715 46 761 92 q 567 0 669 0 l 268 0 q 119 46 165 0 q 74 194 74 92 l 74 958 q 119 1107 74 1061 q 268 1153 165 1153 l 567 1153 q 715 1107 669 1153 q 761 958 761 1061 l 761 772 l 619 772 l 619 960 q 604 1008 619 993 q 557 1022 589 1022 l 278 1022 q 231 1008 246 1022 q 217 960 217 993 l 217 193 q 231 145 217 160 q 278 131 246 131 l 557 131 q 604 145 589 131 q 619 193 619 160 l 619 529 l 308 529 l 308 660 z "},"H":{"ha":840,"x_min":76,"x_max":763,"o":"m 76 1153 l 218 1153 l 218 660 l 621 660 l 621 1153 l 763 1153 l 763 0 l 621 0 l 621 529 l 218 529 l 218 0 l 76 0 l 76 1153 z "},"I":{"ha":294,"x_min":76,"x_max":218,"o":"m 76 1153 l 218 1153 l 218 0 l 76 0 l 76 1153 z "},"J":{"ha":779,"x_min":51,"x_max":704,"o":"m 193 486 l 193 193 q 208 145 193 160 q 256 131 222 131 l 500 131 q 548 145 533 131 q 563 193 563 160 l 563 1153 l 704 1153 l 704 194 q 659 46 704 92 q 511 0 614 0 l 244 0 q 97 46 142 0 q 51 194 51 92 l 51 486 l 193 486 z "},"K":{"ha":814,"x_min":76,"x_max":813,"o":"m 76 1153 l 218 1153 l 218 251 l 635 1153 l 788 1153 l 532 603 l 813 0 l 660 0 l 454 439 l 251 0 l 76 0 l 76 1153 z "},"Ĳ":{"ha":814,"x_min":76,"x_max":813,"o":"m 76 1153 l 218 1153 l 218 251 l 635 1153 l 788 1153 l 532 603 l 813 0 l 660 0 l 454 439 l 251 0 l 76 0 l 76 1153 z "},"L":{"ha":633,"x_min":76,"x_max":625,"o":"m 247 0 q 117 40 157 0 q 76 171 76 81 l 76 1153 l 218 1153 l 218 188 q 275 131 218 131 l 625 131 l 625 0 l 247 0 z "},"M":{"ha":1017,"x_min":76,"x_max":935,"o":"m 218 797 l 218 0 l 76 0 l 76 1153 l 254 1153 l 506 333 l 757 1153 l 935 1153 l 935 0 l 793 0 l 793 797 l 565 56 l 447 56 l 218 797 z "},"N":{"ha":844,"x_min":76,"x_max":768,"o":"m 76 1153 l 251 1153 l 626 260 l 626 1153 l 768 1153 l 768 0 l 593 0 l 218 890 l 218 0 l 76 0 l 76 1153 z "},"O":{"ha":831,"x_min":72,"x_max":760,"o":"m 72 958 q 118 1107 72 1061 q 267 1153 164 1153 l 565 1153 q 714 1107 668 1153 q 760 958 760 1061 l 760 194 q 714 46 760 92 q 565 0 668 0 l 267 0 q 118 46 164 0 q 72 194 72 92 l 72 958 m 556 131 q 603 145 588 131 q 618 193 618 160 l 618 960 q 603 1008 618 993 q 556 1022 588 1022 l 276 1022 q 230 1008 244 1022 q 215 960 215 993 l 215 193 q 230 145 215 160 q 276 131 244 131 l 556 131 z "},"P":{"ha":814,"x_min":76,"x_max":764,"o":"m 76 1153 l 569 1153 q 718 1107 672 1153 q 764 958 764 1061 l 764 543 q 718 395 764 440 q 569 350 672 350 l 311 350 l 311 481 l 560 481 q 621 542 621 481 l 621 960 q 606 1008 621 993 q 560 1022 592 1022 l 218 1022 l 218 0 l 76 0 l 76 1153 z "},"Q":{"ha":822,"x_min":67,"x_max":754,"o":"m 407 0 l 261 0 q 113 46 158 0 q 67 194 67 92 l 67 958 q 113 1107 67 1061 q 261 1153 158 1153 l 560 1153 q 708 1107 663 1153 q 754 958 754 1061 l 754 194 q 708 46 754 92 q 560 0 663 0 l 526 0 l 526 -206 l 407 -206 l 407 0 m 407 250 l 526 250 l 526 131 l 550 131 q 597 145 582 131 q 613 193 613 160 l 613 960 q 597 1008 613 993 q 550 1022 582 1022 l 271 1022 q 224 1008 239 1022 q 210 960 210 993 l 210 193 q 224 145 210 160 q 271 131 239 131 l 407 131 l 407 250 z "},"R":{"ha":821,"x_min":76,"x_max":764,"o":"m 76 1153 l 514 1153 q 663 1107 617 1153 q 708 958 708 1061 l 708 724 q 692 632 708 669 q 764 467 764 592 l 764 0 l 621 0 l 621 468 q 560 529 621 529 l 307 529 l 307 660 l 504 660 q 565 722 565 660 l 565 960 q 551 1008 565 993 q 504 1022 536 1022 l 218 1022 l 218 0 l 76 0 l 76 1153 z "},"S":{"ha":818,"x_min":65,"x_max":753,"o":"m 207 382 l 207 193 q 222 145 207 160 q 269 131 238 131 l 549 131 q 595 145 581 131 q 610 193 610 160 l 610 468 q 549 529 610 529 l 271 529 q 122 575 168 529 q 76 724 76 621 l 76 958 q 122 1107 76 1061 q 271 1153 168 1153 l 544 1153 q 693 1107 647 1153 q 739 958 739 1061 l 739 772 l 596 772 l 596 960 q 581 1008 596 993 q 535 1022 567 1022 l 281 1022 q 233 1008 249 1022 q 218 960 218 993 l 218 722 q 281 660 218 660 l 558 660 q 707 613 661 660 q 753 463 753 565 l 753 194 q 707 46 753 92 q 558 0 661 0 l 260 0 q 111 46 157 0 q 65 194 65 92 l 65 382 l 207 382 z "},"T":{"ha":726,"x_min":7,"x_max":719,"o":"m 292 1022 l 7 1022 l 7 1153 l 719 1153 l 719 1022 l 435 1022 l 435 0 l 292 0 l 292 1022 z "},"U":{"ha":836,"x_min":74,"x_max":761,"o":"m 217 1153 l 217 193 q 231 145 217 160 q 279 131 246 131 l 557 131 q 605 145 590 131 q 619 193 619 160 l 619 1153 l 761 1153 l 761 194 q 715 46 761 92 q 567 0 669 0 l 268 0 q 119 46 165 0 q 74 194 74 92 l 74 1153 l 217 1153 z "},"V":{"ha":839,"x_min":21,"x_max":818,"o":"m 21 1153 l 164 1153 l 419 108 l 675 1153 l 818 1153 l 535 0 l 303 0 l 21 1153 z "},"W":{"ha":1250,"x_min":21,"x_max":1231,"o":"m 21 1153 l 167 1153 l 357 107 l 519 1153 l 733 1153 l 893 107 l 1085 1153 l 1231 1153 l 1019 0 l 774 0 l 626 961 l 476 0 l 231 0 l 21 1153 z "},"X":{"ha":699,"x_min":21,"x_max":678,"o":"m 272 606 l 46 1153 l 199 1153 l 350 781 l 499 1153 l 653 1153 l 426 606 l 678 0 l 524 0 l 350 429 l 174 0 l 21 0 l 272 606 z "},"Y":{"ha":804,"x_min":65,"x_max":739,"o":"m 331 297 l 260 297 q 111 342 157 297 q 65 490 65 388 l 65 1153 l 207 1153 l 207 489 q 269 428 207 428 l 535 428 q 596 489 596 428 l 596 1153 l 739 1153 l 739 490 q 693 342 739 388 q 544 297 647 297 l 474 297 l 474 0 l 331 0 l 331 297 z "},"Z":{"ha":753,"x_min":46,"x_max":707,"o":"m 46 150 l 549 1022 l 54 1022 l 54 1153 l 699 1153 l 699 1003 l 197 131 l 707 131 l 707 0 l 46 0 l 46 150 z "},"[":{"ha":421,"x_min":76,"x_max":374,"o":"m 76 1194 l 374 1194 l 374 1075 l 218 1075 l 218 0 l 374 0 l 374 -119 l 76 -119 l 76 1194 z "},"\\":{"ha":428,"x_min":-6,"x_max":428,"o":"m -6 1153 l 128 1153 l 428 -60 l 293 -60 l -6 1153 z "},"]":{"ha":421,"x_min":47,"x_max":344,"o":"m 47 0 l 203 0 l 203 1075 l 47 1075 l 47 1194 l 344 1194 l 344 -119 l 47 -119 l 47 0 z "},"^":{"ha":711,"x_min":-17,"x_max":732,"o":"m 276 1153 l 446 1153 l 732 710 l 628 643 l 361 1054 l 83 643 l -17 713 l 276 1153 z "},"_":{"ha":894,"x_min":0,"x_max":894,"o":"m 0 -49 l 894 -49 l 894 -168 l 0 -168 l 0 -49 z "},"`":{"ha":538,"x_min":75,"x_max":376,"o":"m 135 978 l 376 839 l 318 736 l 75 874 l 135 978 z "},"a":{"ha":738,"x_min":67,"x_max":671,"o":"m 238 0 q 107 40 147 0 q 67 171 67 81 l 67 774 q 107 904 67 864 q 238 944 147 944 l 500 944 q 631 904 590 944 q 671 774 671 864 l 671 0 l 540 0 l 540 778 q 493 825 540 825 l 246 825 q 197 778 197 825 l 197 167 q 246 119 197 119 l 463 119 l 463 0 l 238 0 z "},"b":{"ha":747,"x_min":76,"x_max":681,"o":"m 207 1194 l 207 936 q 258 944 228 944 l 510 944 q 640 904 600 944 q 681 774 681 864 l 681 171 q 640 40 681 81 q 510 0 600 0 l 247 0 q 117 40 157 0 q 76 171 76 81 l 76 1194 l 207 1194 m 503 119 q 550 167 550 119 l 550 778 q 503 825 550 825 l 256 825 q 207 778 207 825 l 207 167 q 256 119 207 119 l 503 119 z "},"c":{"ha":740,"x_min":71,"x_max":675,"o":"m 675 308 l 675 171 q 635 40 675 81 q 504 0 594 0 l 242 0 q 111 40 151 0 q 71 171 71 81 l 71 774 q 111 904 71 864 q 242 944 151 944 l 504 944 q 635 904 594 944 q 675 774 675 864 l 675 636 l 544 636 l 544 778 q 497 825 544 825 l 250 825 q 201 778 201 825 l 201 167 q 213 130 201 140 q 250 119 224 119 l 497 119 q 544 167 544 119 l 544 308 l 675 308 z "},"d":{"ha":763,"x_min":71,"x_max":686,"o":"m 556 1194 l 686 1194 l 686 171 q 646 40 686 81 q 515 0 606 0 l 242 0 q 111 40 151 0 q 71 171 71 81 l 71 774 q 111 904 71 864 q 242 944 151 944 l 504 944 q 556 936 535 944 l 556 1194 m 508 119 q 556 167 556 119 l 556 778 q 508 825 556 825 l 250 825 q 201 778 201 825 l 201 167 q 250 119 201 119 l 508 119 z "},"e":{"ha":740,"x_min":71,"x_max":675,"o":"m 269 474 l 497 474 q 544 522 544 474 l 544 778 q 497 825 544 825 l 250 825 q 201 778 201 825 l 201 167 q 250 119 201 119 l 485 119 q 532 167 532 119 l 532 297 l 663 297 l 663 171 q 622 40 663 81 q 492 0 582 0 l 242 0 q 111 40 151 0 q 71 171 71 81 l 71 774 q 111 904 71 864 q 242 944 151 944 l 504 944 q 635 904 594 944 q 675 774 675 864 l 675 525 q 635 394 675 435 q 504 354 594 354 l 269 354 l 269 474 z "},"f":{"ha":450,"x_min":1,"x_max":449,"o":"m 76 825 l 1 825 l 1 944 l 76 944 l 76 1024 q 117 1154 76 1114 q 247 1194 157 1194 l 449 1194 l 449 1075 l 254 1075 q 207 1028 207 1075 l 207 944 l 372 944 l 372 825 l 207 825 l 207 0 l 76 0 l 76 825 z "},"g":{"ha":754,"x_min":71,"x_max":725,"o":"m 649 825 q 663 774 663 806 l 663 357 q 622 226 663 267 q 492 186 582 186 l 243 186 q 220 187 231 186 q 199 189 210 188 l 199 151 q 247 103 199 103 l 521 103 q 651 66 611 103 q 692 -42 692 29 l 692 -65 q 651 -196 692 -156 q 521 -236 611 -236 l 242 -236 q 111 -196 151 -236 q 71 -65 71 -156 l 71 -33 l 203 -33 l 203 -69 q 250 -117 203 -117 l 513 -117 q 560 -69 560 -117 l 560 -53 q 513 -6 560 -6 l 242 -6 q 111 35 151 -6 q 71 165 71 75 l 71 774 q 111 904 71 864 q 242 944 151 944 l 725 944 l 725 825 l 649 825 m 483 306 q 531 354 531 306 l 531 778 q 483 825 531 825 l 250 825 q 203 778 203 825 l 203 354 q 250 306 203 306 l 483 306 z "},"h":{"ha":751,"x_min":76,"x_max":681,"o":"m 76 1194 l 207 1194 l 207 936 q 258 944 228 944 l 510 944 q 640 904 600 944 q 681 774 681 864 l 681 0 l 550 0 l 550 778 q 503 825 550 825 l 256 825 q 207 778 207 825 l 207 0 l 76 0 l 76 1194 z "},"i":{"ha":313,"x_min":64,"x_max":249,"o":"m 90 944 l 222 944 l 222 0 l 90 0 l 90 944 m 64 1126 q 91 1193 64 1167 q 157 1219 118 1219 q 222 1193 196 1219 q 249 1126 249 1167 q 222 1063 249 1089 q 157 1036 196 1036 q 91 1063 118 1036 q 64 1126 64 1089 z "},"j":{"ha":283,"x_min":-96,"x_max":235,"o":"m -96 -117 l 29 -117 q 76 -69 76 -117 l 76 944 l 207 944 l 207 -65 q 167 -196 207 -156 q 36 -236 126 -236 l -96 -236 l -96 -117 m 50 1126 q 76 1193 50 1167 q 143 1219 103 1219 q 208 1193 181 1219 q 235 1126 235 1167 q 208 1063 235 1089 q 143 1036 181 1036 q 76 1063 103 1036 q 50 1126 50 1089 z "},"k":{"ha":721,"x_min":76,"x_max":713,"o":"m 76 1194 l 207 1194 l 207 119 l 674 967 l 674 713 l 531 447 l 713 -1 l 572 -1 l 450 299 l 289 0 l 76 0 l 76 1194 z "},"l":{"ha":283,"x_min":76,"x_max":207,"o":"m 76 1194 l 207 1194 l 207 0 l 76 0 l 76 1194 z "},"m":{"ha":1193,"x_min":71,"x_max":1122,"o":"m 71 774 q 111 904 71 864 q 242 944 151 944 l 486 944 q 549 938 522 944 q 596 915 576 931 q 707 944 633 944 l 951 944 q 1082 904 1042 944 q 1122 774 1122 864 l 1122 0 l 992 0 l 992 778 q 943 825 992 825 l 707 825 q 660 778 660 825 l 660 0 l 533 0 l 533 778 q 485 825 533 825 l 250 825 q 201 778 201 825 l 201 0 l 71 0 l 71 774 z "},"n":{"ha":746,"x_min":71,"x_max":675,"o":"m 71 774 q 111 904 71 864 q 242 944 151 944 l 504 944 q 635 904 594 944 q 675 774 675 864 l 675 0 l 544 0 l 544 778 q 496 825 544 825 l 249 825 q 201 778 201 825 l 201 0 l 71 0 l 71 774 z "},"o":{"ha":746,"x_min":71,"x_max":675,"o":"m 71 774 q 111 904 71 864 q 242 944 151 944 l 504 944 q 635 904 594 944 q 675 774 675 864 l 675 171 q 635 40 675 81 q 504 0 594 0 l 242 0 q 111 40 151 0 q 71 171 71 81 l 71 774 m 497 119 q 544 167 544 119 l 544 778 q 497 825 544 825 l 250 825 q 201 778 201 825 l 201 167 q 250 119 201 119 l 497 119 z "},"p":{"ha":751,"x_min":76,"x_max":681,"o":"m 76 774 q 117 904 76 864 q 247 944 157 944 l 510 944 q 640 904 600 944 q 681 774 681 864 l 681 171 q 640 40 681 81 q 510 0 600 0 l 258 0 q 207 8 228 0 l 207 -236 l 76 -236 l 76 774 m 503 119 q 550 167 550 119 l 550 778 q 503 825 550 825 l 256 825 q 207 778 207 825 l 207 167 q 256 119 207 119 l 503 119 z "},"q":{"ha":751,"x_min":71,"x_max":675,"o":"m 544 8 q 493 0 524 0 l 242 0 q 111 40 151 0 q 71 171 71 81 l 71 774 q 111 904 71 864 q 242 944 151 944 l 504 944 q 635 904 594 944 q 675 774 675 864 l 675 -236 l 544 -236 l 544 8 m 497 119 q 544 167 544 119 l 544 778 q 497 825 544 825 l 250 825 q 201 778 201 825 l 201 167 q 250 119 201 119 l 497 119 z "},"r":{"ha":629,"x_min":72,"x_max":600,"o":"m 72 944 l 429 944 q 560 904 519 944 q 600 774 600 864 l 600 636 l 469 636 l 469 778 q 421 825 469 825 l 203 825 l 203 0 l 72 0 l 72 944 z "},"s":{"ha":706,"x_min":65,"x_max":640,"o":"m 196 308 l 196 167 q 244 119 196 119 l 461 119 q 510 167 510 119 l 510 375 q 461 424 510 424 l 247 424 q 117 464 157 424 q 76 594 76 504 l 76 774 q 117 904 76 864 q 247 944 157 944 l 456 944 q 586 904 546 944 q 626 774 626 864 l 626 636 l 496 636 l 496 778 q 447 825 496 825 l 256 825 q 207 778 207 825 l 207 583 q 256 536 207 536 l 469 536 q 600 496 560 536 q 640 365 640 456 l 640 171 q 600 40 640 81 q 469 0 560 0 l 236 0 q 106 40 146 0 q 65 171 65 81 l 65 308 l 196 308 z "},"t":{"ha":446,"x_min":3,"x_max":439,"o":"m 247 0 q 117 40 157 0 q 76 171 76 81 l 76 825 l 3 825 l 3 944 l 78 944 l 94 1146 l 207 1158 l 207 944 l 376 944 l 376 825 l 207 825 l 207 167 q 256 119 207 119 l 439 119 l 439 0 l 247 0 z "},"u":{"ha":735,"x_min":71,"x_max":664,"o":"m 201 944 l 201 167 q 249 119 201 119 l 485 119 q 532 167 532 119 l 532 944 l 664 944 l 664 171 q 624 40 664 81 q 493 0 583 0 l 242 0 q 111 40 151 0 q 71 171 71 81 l 71 944 l 201 944 z "},"v":{"ha":736,"x_min":8,"x_max":728,"o":"m 8 944 l 144 944 l 367 107 l 589 944 l 728 944 l 464 0 l 271 0 l 8 944 z "},"w":{"ha":1074,"x_min":11,"x_max":1063,"o":"m 11 944 l 139 944 l 306 107 l 479 944 l 593 944 l 768 107 l 935 944 l 1063 944 l 875 0 l 676 0 l 536 672 l 397 0 l 199 0 l 11 944 z "},"x":{"ha":633,"x_min":8,"x_max":626,"o":"m 247 486 l 21 944 l 161 944 l 317 628 l 474 944 l 613 944 l 388 486 l 626 0 l 486 0 l 317 343 l 149 0 l 8 0 l 247 486 z "},"y":{"ha":739,"x_min":71,"x_max":663,"o":"m 257 -117 l 485 -117 q 532 -69 532 -117 l 532 13 q 481 0 511 0 l 242 0 q 111 40 151 0 q 71 171 71 81 l 71 944 l 203 944 l 203 167 q 250 119 203 119 l 485 119 q 532 167 532 119 l 532 944 l 663 944 l 663 -65 q 622 -196 663 -156 q 492 -236 582 -236 l 257 -236 l 257 -117 z "},"z":{"ha":589,"x_min":29,"x_max":560,"o":"m 29 136 l 425 825 l 43 825 l 43 944 l 560 944 l 560 810 l 164 119 l 560 119 l 560 0 l 29 0 l 29 136 z "},"{":{"ha":688,"x_min":90,"x_max":640,"o":"m 454 -119 q 326 -76 369 -119 q 283 51 283 -32 l 283 356 q 278 417 283 393 q 260 454 274 440 q 222 473 246 468 q 161 478 199 478 l 90 478 l 90 597 l 161 597 q 223 602 199 597 q 260 620 247 607 q 278 658 274 633 q 283 719 283 682 l 283 1024 q 327 1151 283 1107 q 454 1194 371 1194 l 640 1194 l 640 1075 l 539 1075 q 476 1071 500 1075 q 438 1053 451 1067 q 421 1017 425 1040 q 417 953 417 993 l 417 688 q 405 593 417 629 q 349 538 393 557 q 405 482 393 518 q 417 388 417 446 l 417 122 q 421 59 417 83 q 438 22 425 35 q 476 4 451 8 q 539 0 500 0 l 640 0 l 640 -119 l 454 -119 z "},"|":{"ha":278,"x_min":68,"x_max":210,"o":"m 68 1194 l 210 1194 l 210 -236 l 68 -236 l 68 1194 z "},"}":{"ha":688,"x_min":47,"x_max":597,"o":"m 47 0 l 149 0 q 213 4 189 0 q 249 22 236 8 q 267 59 263 35 q 271 122 271 83 l 271 388 q 283 482 271 446 q 339 538 294 518 q 283 593 294 557 q 271 688 271 629 l 271 953 q 267 1017 271 993 q 249 1053 263 1040 q 213 1071 236 1067 q 149 1075 189 1075 l 47 1075 l 47 1194 l 233 1194 q 360 1151 317 1194 q 404 1024 404 1107 l 404 719 q 409 658 404 682 q 427 620 414 633 q 465 602 440 607 q 526 597 489 597 l 597 597 l 597 478 l 526 478 q 465 473 489 478 q 428 454 442 468 q 409 417 414 440 q 404 356 404 393 l 404 51 q 360 -76 404 -32 q 233 -119 317 -119 l 47 -119 l 47 0 z "},"~":{"ha":1090,"x_min":189,"x_max":901,"o":"m 189 525 q 247 704 189 639 q 408 769 306 769 q 511 746 468 769 q 592 672 554 722 q 636 626 615 640 q 689 613 657 613 q 792 749 792 613 l 901 749 q 847 568 901 631 q 690 506 793 506 q 588 528 629 506 q 507 600 547 551 q 458 649 479 635 q 407 663 436 663 q 326 627 354 663 q 299 525 299 592 l 189 525 z "},"¡":{"ha":253,"x_min":38,"x_max":217,"o":"m 56 72 l 79 694 l 172 694 l 197 72 l 197 -208 l 56 -208 l 56 72 m 38 864 q 65 926 38 900 q 129 953 92 953 q 191 926 165 953 q 217 864 217 900 q 191 800 217 826 q 129 774 165 774 q 65 800 92 774 q 38 864 38 826 z "},"¢":{"ha":740,"x_min":71,"x_max":675,"o":"m 675 308 l 675 171 q 635 40 675 81 q 504 0 594 0 l 425 0 l 425 -147 l 317 -147 l 317 0 l 242 0 q 111 40 151 0 q 71 171 71 81 l 71 774 q 111 904 71 864 q 242 944 151 944 l 317 944 l 317 1108 l 425 1108 l 425 944 l 504 944 q 635 904 594 944 q 675 774 675 864 l 675 636 l 544 636 l 544 778 q 497 825 544 825 l 250 825 q 201 778 201 825 l 201 167 q 213 130 201 140 q 250 119 224 119 l 497 119 q 544 167 544 119 l 544 308 l 675 308 z "},"£":{"ha":819,"x_min":29,"x_max":772,"o":"m 29 131 l 121 131 l 121 486 l 29 486 l 29 594 l 121 594 l 121 982 q 161 1113 121 1072 q 292 1153 201 1153 l 482 1153 q 613 1113 572 1153 q 653 982 653 1072 l 653 797 l 522 797 l 522 986 q 475 1033 522 1033 l 311 1033 q 263 986 263 1033 l 263 594 l 506 594 l 506 486 l 263 486 l 263 131 l 629 131 l 629 304 l 772 304 l 772 0 l 29 0 l 29 131 z "},"¤":{"ha":678,"x_min":50,"x_max":628,"o":"m 103 235 q 74 349 74 275 l 74 808 q 101 919 74 883 l 50 1021 l 178 1021 l 204 969 q 219 971 211 971 q 236 971 228 971 l 422 971 q 472 967 450 971 l 500 1021 l 628 1021 l 567 903 q 586 808 586 867 l 586 349 q 565 251 586 289 l 628 131 l 499 131 l 469 189 q 447 187 458 188 q 422 186 435 186 l 236 186 q 222 186 229 186 q 207 188 214 186 l 179 131 l 50 131 l 103 235 m 422 297 q 457 306 449 297 q 465 340 465 314 l 465 817 q 457 851 465 843 q 422 860 449 860 l 236 860 q 201 851 210 860 q 193 817 193 843 l 193 340 q 201 306 193 314 q 236 297 210 297 l 422 297 z "},"¥":{"ha":826,"x_min":65,"x_max":761,"o":"m 240 196 l 342 196 l 342 269 l 182 269 l 182 353 l 342 353 l 342 426 l 260 426 q 111 472 157 426 q 65 621 65 518 l 65 1153 l 207 1153 l 207 619 q 222 572 207 586 q 269 557 238 557 l 557 557 q 603 572 589 557 q 618 619 618 586 l 618 1153 l 761 1153 l 761 621 q 715 472 761 518 q 567 426 669 426 l 485 426 l 485 353 l 644 353 l 644 269 l 485 269 l 485 196 l 586 196 l 586 113 l 485 113 l 485 0 l 342 0 l 342 113 l 240 113 l 240 196 z "},"¦":{"ha":294,"x_min":76,"x_max":218,"o":"m 76 375 l 218 375 l 218 -236 l 76 -236 l 76 375 m 76 1194 l 218 1194 l 218 583 l 76 583 l 76 1194 z "},"§":{"ha":754,"x_min":65,"x_max":689,"o":"m 196 283 l 196 167 q 244 119 196 119 l 510 119 q 557 167 557 119 l 557 328 q 510 375 557 375 l 236 375 q 106 415 146 375 q 65 546 65 456 l 65 651 q 97 767 65 729 q 65 882 65 804 l 65 1024 q 106 1154 65 1114 q 236 1194 146 1194 l 515 1194 q 646 1154 606 1194 q 686 1024 686 1114 l 686 904 l 554 904 l 554 1028 q 507 1075 554 1075 l 244 1075 q 196 1028 196 1075 l 196 879 q 244 831 196 831 l 518 831 q 649 790 608 831 q 689 660 689 750 l 689 546 q 660 435 689 475 q 689 324 689 397 l 689 171 q 649 40 689 81 q 518 0 608 0 l 236 0 q 106 40 146 0 q 65 171 65 81 l 65 283 l 196 283 m 510 494 q 547 506 536 494 q 557 543 557 517 l 557 664 q 510 711 557 711 l 244 711 q 196 664 196 711 l 196 543 q 244 494 196 494 l 510 494 z "},"¨":{"ha":653,"x_min":115,"x_max":538,"o":"m 115 846 q 142 910 115 883 q 207 938 169 938 q 269 910 243 938 q 296 846 296 883 q 269 783 296 810 q 207 757 243 757 q 142 783 169 757 q 115 846 115 810 m 358 846 q 385 910 358 883 q 449 938 411 938 q 511 910 485 938 q 538 846 538 883 q 511 783 538 810 q 449 757 485 757 q 385 783 411 757 q 358 846 358 810 z "},"©":{"ha":1071,"x_min":68,"x_max":1003,"o":"m 531 210 q 180 338 292 210 q 68 700 68 465 q 183 1074 68 949 q 542 1200 299 1200 q 892 1073 781 1200 q 1003 710 1003 946 q 888 335 1003 461 q 531 210 774 210 m 738 613 l 738 581 q 697 450 738 490 q 567 410 657 410 l 504 410 q 374 450 414 410 q 333 581 333 490 l 333 833 q 374 963 333 924 q 504 1003 414 1003 l 567 1003 q 697 963 657 1003 q 738 833 738 924 l 738 796 l 618 796 l 618 846 q 571 894 618 894 l 501 894 q 453 846 453 894 l 453 568 q 464 531 453 542 q 501 521 475 521 l 571 521 q 618 568 618 521 l 618 613 l 738 613 m 536 318 q 699 344 632 318 q 808 421 767 371 q 869 543 850 471 q 889 707 889 615 q 869 870 889 799 q 808 991 850 942 q 698 1066 765 1040 q 536 1092 631 1092 q 372 1065 440 1092 q 262 990 304 1039 q 200 869 219 940 q 181 707 181 797 q 201 542 181 614 q 263 419 221 469 q 373 344 306 369 q 536 318 440 318 z "},"ª":{"ha":585,"x_min":65,"x_max":508,"o":"m 86 438 l 496 438 l 496 328 l 86 328 l 86 438 m 228 843 q 194 834 203 843 q 185 800 185 825 l 185 660 q 194 626 185 635 q 228 618 203 618 l 346 618 q 379 626 371 618 q 388 660 388 635 l 388 1000 q 378 1033 388 1025 q 346 1042 369 1042 l 110 1042 l 110 1153 l 344 1153 q 469 1115 431 1153 q 508 990 508 1076 l 508 669 q 469 545 508 583 q 344 507 431 507 l 228 507 q 103 544 142 507 q 65 668 65 582 l 65 793 q 103 916 65 879 q 228 953 142 953 l 331 953 l 331 843 l 228 843 z "},"«":{"ha":682,"x_min":32,"x_max":629,"o":"m 32 486 l 233 835 l 349 769 l 186 486 l 349 203 l 233 138 l 32 486 m 313 486 l 514 835 l 629 769 l 465 486 l 629 203 l 514 138 l 313 486 z "},"¬":{"ha":458,"x_min":47,"x_max":389,"o":"m 47 706 l 389 706 l 389 507 l 247 507 l 247 586 l 47 586 l 47 706 z "},"®":{"ha":919,"x_min":68,"x_max":851,"o":"m 68 982 q 108 1113 68 1072 q 239 1153 149 1153 l 681 1153 q 811 1113 771 1153 q 851 982 851 1072 l 851 443 q 811 313 851 353 q 681 272 771 272 l 239 272 q 108 313 149 272 q 68 443 68 353 l 68 982 m 264 986 l 460 986 q 576 959 540 986 q 613 867 613 932 l 613 793 q 600 721 613 749 q 656 589 656 689 l 656 440 l 558 440 l 558 599 q 547 637 558 625 q 508 649 536 649 l 396 649 l 396 733 l 465 733 q 515 783 515 733 l 515 851 q 465 901 515 901 l 361 901 l 361 440 l 264 440 l 264 986 m 685 383 q 732 431 732 383 l 732 994 q 685 1042 732 1042 l 235 1042 q 188 994 188 1042 l 188 431 q 235 383 188 383 l 685 383 z "},"¯":{"ha":689,"x_min":158,"x_max":531,"o":"m 158 876 l 531 876 l 531 768 l 158 768 l 158 876 z "},"°":{"ha":507,"x_min":47,"x_max":457,"o":"m 47 999 q 63 1078 47 1040 q 107 1143 79 1115 q 172 1187 135 1171 q 253 1203 210 1203 q 332 1187 294 1203 q 397 1143 369 1171 q 441 1078 425 1115 q 457 999 457 1040 q 441 918 457 956 q 397 853 425 881 q 332 809 369 825 q 253 793 294 793 q 172 809 210 793 q 107 853 135 825 q 63 918 79 881 q 47 999 47 956 m 151 999 q 181 926 151 956 q 253 897 210 897 q 324 926 294 897 q 353 999 353 956 q 324 1069 353 1040 q 253 1099 294 1099 q 181 1069 210 1099 q 151 999 151 1040 z "},"±":{"ha":789,"x_min":47,"x_max":742,"o":"m 47 844 l 317 844 l 317 1013 l 458 1013 l 458 844 l 742 844 l 742 725 l 458 725 l 458 557 l 317 557 l 317 725 l 47 725 l 47 844 m 47 431 l 740 431 l 740 311 l 47 311 l 47 431 z "},"²":{"ha":517,"x_min":36,"x_max":481,"o":"m 178 596 q 70 630 104 596 q 36 738 36 664 l 36 910 q 70 1017 36 983 q 178 1051 104 1051 l 325 1051 q 353 1058 346 1051 q 360 1083 360 1064 l 360 1238 q 353 1263 360 1257 q 325 1269 346 1269 l 58 1269 l 58 1381 l 339 1381 q 447 1347 414 1381 q 481 1242 481 1314 l 481 1079 q 447 974 481 1007 q 339 940 414 940 l 192 940 q 163 933 171 940 q 156 906 156 925 l 156 742 q 163 715 156 722 q 192 707 171 707 l 471 707 l 471 596 l 178 596 z "},"³":{"ha":521,"x_min":33,"x_max":469,"o":"m 33 707 l 314 707 q 344 713 338 707 q 350 742 350 718 l 350 906 q 342 935 350 928 q 314 942 335 942 l 118 942 l 118 1053 l 314 1053 q 342 1059 335 1053 q 350 1089 350 1065 l 350 1235 q 344 1264 350 1258 q 314 1269 338 1269 l 33 1269 l 33 1381 l 315 1381 q 433 1344 397 1381 q 469 1226 469 1308 l 469 1069 q 450 997 469 1021 q 469 925 469 971 l 469 750 q 433 632 469 668 q 315 596 397 596 l 33 596 l 33 707 z "},"´":{"ha":538,"x_min":128,"x_max":429,"o":"m 128 839 l 369 978 l 429 874 l 186 736 l 128 839 z "},"¶":{"ha":794,"x_min":63,"x_max":718,"o":"m 279 256 l 236 256 q 63 422 63 256 l 63 986 q 236 1153 63 1153 l 547 1153 q 678 1113 638 1153 q 718 982 718 1072 l 718 -236 l 576 -236 l 576 911 q 572 976 576 951 q 556 1013 568 1000 q 519 1029 543 1025 q 454 1033 494 1033 l 421 1033 l 421 -236 l 279 -236 l 279 256 z "},"·":{"ha":249,"x_min":31,"x_max":215,"o":"m 31 475 q 58 541 31 514 q 125 568 86 568 q 189 541 163 568 q 215 475 215 514 q 189 410 215 438 q 125 383 163 383 q 58 410 86 383 q 31 475 31 438 z "},"¸":{"ha":310,"x_min":40,"x_max":278,"o":"m 78 -139 q 106 -156 89 -149 q 140 -164 124 -164 q 169 -153 157 -164 q 181 -124 181 -143 q 173 -97 181 -107 q 153 -83 165 -87 q 126 -76 140 -78 q 97 -75 111 -75 l 63 7 l 175 7 q 253 -51 229 -15 q 278 -129 278 -86 q 238 -222 278 -190 q 142 -253 197 -253 q 90 -246 115 -253 q 40 -224 64 -239 l 78 -139 z "},"¹":{"ha":510,"x_min":25,"x_max":485,"o":"m 25 707 l 206 707 l 206 1269 l 82 1269 l 82 1381 l 326 1381 l 326 707 l 485 707 l 485 596 l 25 596 l 25 707 z "},"º":{"ha":579,"x_min":68,"x_max":510,"o":"m 88 429 l 494 429 l 494 319 l 88 319 l 88 429 m 68 990 q 106 1115 68 1076 q 231 1153 144 1153 l 347 1153 q 472 1115 433 1153 q 510 990 510 1076 l 510 669 q 472 545 510 583 q 347 507 433 507 l 231 507 q 106 545 144 507 q 68 669 68 583 l 68 990 m 347 618 q 381 627 371 618 q 390 660 390 636 l 390 1000 q 381 1033 390 1024 q 347 1042 371 1042 l 229 1042 q 197 1033 206 1042 q 188 1000 188 1024 l 188 660 q 197 627 188 636 q 229 618 206 618 l 347 618 z "},"»":{"ha":682,"x_min":54,"x_max":650,"o":"m 217 486 l 54 769 l 169 835 l 371 486 l 169 138 l 54 203 l 217 486 m 497 486 l 333 769 l 449 835 l 650 486 l 449 138 l 333 203 l 497 486 z "},"¼":{"ha":1547,"x_min":25,"x_max":1471,"o":"m 1246 139 l 1032 139 q 906 177 944 139 q 868 301 868 215 l 868 785 l 989 785 l 989 293 q 997 258 989 267 q 1032 250 1006 250 l 1246 250 l 1246 649 l 1365 649 l 1365 250 l 1471 250 l 1471 139 l 1365 139 l 1365 0 l 1246 0 l 1246 139 m 25 479 l 206 479 l 206 1042 l 82 1042 l 82 1153 l 326 1153 l 326 479 l 485 479 l 485 368 l 25 368 l 25 479 m 874 1169 l 985 1117 l 481 -17 l 368 36 l 874 1169 z "},"½":{"ha":1369,"x_min":25,"x_max":1293,"o":"m 990 0 q 883 34 917 0 q 849 142 849 68 l 849 314 q 883 422 849 388 q 990 456 917 456 l 1138 456 q 1166 462 1158 456 q 1174 488 1174 468 l 1174 642 q 1166 667 1174 661 q 1138 674 1158 674 l 871 674 l 871 785 l 1151 785 q 1260 751 1226 785 q 1293 646 1293 718 l 1293 483 q 1260 378 1293 411 q 1151 344 1226 344 l 1004 344 q 977 337 985 344 q 969 310 969 329 l 969 146 q 977 119 969 126 q 1004 111 985 111 l 1285 111 l 1285 0 l 990 0 m 25 479 l 206 479 l 206 1042 l 82 1042 l 82 1153 l 326 1153 l 326 479 l 485 479 l 485 368 l 25 368 l 25 479 m 876 1169 l 988 1117 l 483 -17 l 371 36 l 876 1169 z "},"¾":{"ha":1506,"x_min":33,"x_max":1429,"o":"m 1204 139 l 990 139 q 865 177 903 139 q 826 301 826 215 l 826 785 l 947 785 l 947 293 q 956 258 947 267 q 990 250 964 250 l 1204 250 l 1204 649 l 1324 649 l 1324 250 l 1429 250 l 1429 139 l 1324 139 l 1324 0 l 1204 0 l 1204 139 m 33 479 l 314 479 q 344 485 338 479 q 350 514 350 490 l 350 678 q 342 707 350 700 q 314 714 335 714 l 118 714 l 118 825 l 314 825 q 342 831 335 825 q 350 861 350 838 l 350 1007 q 344 1036 350 1031 q 314 1042 338 1042 l 33 1042 l 33 1153 l 315 1153 q 433 1117 397 1153 q 469 999 469 1081 l 469 842 q 450 769 469 793 q 469 697 469 743 l 469 522 q 433 404 469 440 q 315 368 397 368 l 33 368 l 33 479 m 835 1169 l 946 1117 l 442 -17 l 329 36 l 835 1169 z "},"¿":{"ha":778,"x_min":65,"x_max":731,"o":"m 731 242 l 731 -14 q 685 -162 731 -117 q 536 -208 639 -208 l 260 -208 q 111 -162 157 -208 q 65 -14 65 -117 l 65 367 q 111 515 65 469 q 260 561 157 561 l 322 561 q 370 576 356 561 q 385 624 385 590 l 385 694 l 528 694 l 528 625 q 482 476 528 522 q 333 431 436 431 l 269 431 q 222 416 238 431 q 207 368 207 401 l 207 -15 q 222 -63 207 -49 q 269 -78 238 -78 l 526 -78 q 573 -63 558 -78 q 588 -15 588 -49 l 588 242 l 731 242 m 456 768 q 392 795 418 768 q 365 861 365 822 q 392 926 365 899 q 456 953 418 953 q 522 926 494 953 q 550 861 550 899 q 522 795 550 822 q 456 768 494 768 z "},"À":{"ha":814,"x_min":8,"x_max":806,"o":"m 292 1153 l 524 1153 l 806 0 l 663 0 l 578 350 l 238 350 l 151 0 l 8 0 l 292 1153 m 546 481 l 407 1044 l 269 481 l 546 481 m 308 1464 l 550 1325 l 492 1222 l 249 1360 l 308 1464 z "},"Á":{"ha":814,"x_min":8,"x_max":806,"o":"m 292 1153 l 524 1153 l 806 0 l 663 0 l 578 350 l 238 350 l 151 0 l 8 0 l 292 1153 m 546 481 l 407 1044 l 269 481 l 546 481 m 267 1325 l 508 1464 l 568 1360 l 325 1222 l 267 1325 z "},"Â":{"ha":814,"x_min":8,"x_max":806,"o":"m 292 1153 l 524 1153 l 806 0 l 663 0 l 578 350 l 238 350 l 151 0 l 8 0 l 292 1153 m 546 481 l 407 1044 l 269 481 l 546 481 m 168 1325 l 404 1461 l 642 1325 l 582 1226 l 404 1328 l 226 1226 l 168 1325 z "},"Ã":{"ha":814,"x_min":8,"x_max":806,"o":"m 292 1153 l 524 1153 l 806 0 l 663 0 l 578 350 l 238 350 l 151 0 l 8 0 l 292 1153 m 546 481 l 407 1044 l 269 481 l 546 481 m 219 1322 l 371 1404 l 450 1357 l 542 1404 l 601 1307 l 450 1225 l 371 1272 l 279 1225 l 219 1322 z "},"Ä":{"ha":814,"x_min":8,"x_max":806,"o":"m 292 1153 l 524 1153 l 806 0 l 663 0 l 578 350 l 238 350 l 151 0 l 8 0 l 292 1153 m 546 481 l 407 1044 l 269 481 l 546 481 m 193 1332 q 220 1397 193 1369 q 285 1424 247 1424 q 347 1397 321 1424 q 374 1332 374 1369 q 347 1269 374 1296 q 285 1243 321 1243 q 220 1269 247 1243 q 193 1332 193 1296 m 436 1332 q 463 1397 436 1369 q 526 1424 489 1424 q 589 1397 563 1424 q 615 1332 615 1369 q 589 1269 615 1296 q 526 1243 563 1243 q 463 1269 489 1243 q 436 1332 436 1296 z "},"Å":{"ha":814,"x_min":8,"x_max":806,"o":"m 292 1153 l 524 1153 l 806 0 l 663 0 l 578 350 l 238 350 l 151 0 l 8 0 l 292 1153 m 546 481 l 407 1044 l 269 481 l 546 481 m 275 1339 q 285 1389 275 1365 q 313 1430 296 1413 q 354 1458 331 1447 q 404 1468 378 1468 q 456 1458 432 1468 q 497 1430 479 1447 q 524 1389 514 1413 q 535 1339 535 1365 q 524 1288 535 1313 q 497 1247 514 1264 q 456 1219 479 1229 q 404 1208 432 1208 q 354 1219 378 1208 q 313 1247 331 1229 q 285 1288 296 1264 q 275 1339 275 1313 m 360 1339 q 373 1306 360 1319 q 404 1293 386 1293 q 437 1306 424 1293 q 450 1339 450 1319 q 437 1372 450 1358 q 404 1385 424 1385 q 373 1372 386 1385 q 360 1339 360 1358 z "},"Æ":{"ha":1106,"x_min":11,"x_max":1072,"o":"m 672 193 q 687 145 672 160 q 735 131 701 131 l 1072 131 l 1072 0 l 724 0 q 575 46 621 0 q 529 194 529 92 l 529 518 l 286 518 l 154 0 l 11 0 l 306 1153 l 1058 1153 l 1058 1022 l 735 1022 q 687 1008 701 1022 q 672 960 672 993 l 672 649 l 932 649 l 932 518 l 672 518 l 672 193 m 529 649 l 529 958 q 531 992 529 976 q 535 1024 532 1008 l 415 1024 l 319 649 l 529 649 z "},"Ç":{"ha":829,"x_min":76,"x_max":763,"o":"m 763 381 l 763 194 q 717 46 763 92 q 569 0 672 0 l 269 0 q 122 46 167 0 q 76 194 76 92 l 76 958 q 122 1107 76 1061 q 269 1153 167 1153 l 569 1153 q 717 1107 672 1153 q 763 958 763 1061 l 763 772 l 621 772 l 621 960 q 606 1008 621 993 q 558 1022 592 1022 l 281 1022 q 233 1008 247 1022 q 218 960 218 993 l 218 193 q 233 145 218 160 q 281 131 247 131 l 558 131 q 606 145 592 131 q 621 193 621 160 l 621 381 l 763 381 m 356 -139 q 384 -156 367 -149 q 418 -164 401 -164 q 447 -153 435 -164 q 458 -124 458 -143 q 451 -97 458 -107 q 431 -83 443 -87 q 403 -76 418 -78 q 375 -75 389 -75 l 340 7 l 453 7 q 531 -51 507 -15 q 556 -129 556 -86 q 515 -222 556 -190 q 419 -253 475 -253 q 367 -246 393 -253 q 318 -224 342 -239 l 356 -139 z "},"È":{"ha":699,"x_min":76,"x_max":667,"o":"m 218 193 q 233 145 218 160 q 281 131 249 131 l 667 131 l 667 0 l 271 0 q 122 46 168 0 q 76 194 76 92 l 76 958 q 122 1107 76 1061 q 271 1153 168 1153 l 653 1153 l 653 1022 l 281 1022 q 233 1008 249 1022 q 218 960 218 993 l 218 660 l 507 660 l 507 529 l 218 529 l 218 193 m 297 1464 l 539 1325 l 481 1222 l 238 1360 l 297 1464 z "},"É":{"ha":699,"x_min":76,"x_max":667,"o":"m 218 193 q 233 145 218 160 q 281 131 249 131 l 667 131 l 667 0 l 271 0 q 122 46 168 0 q 76 194 76 92 l 76 958 q 122 1107 76 1061 q 271 1153 168 1153 l 653 1153 l 653 1022 l 281 1022 q 233 1008 249 1022 q 218 960 218 993 l 218 660 l 507 660 l 507 529 l 218 529 l 218 193 m 254 1325 l 496 1464 l 556 1360 l 313 1222 l 254 1325 z "},"Ê":{"ha":699,"x_min":76,"x_max":667,"o":"m 218 193 q 233 145 218 160 q 281 131 249 131 l 667 131 l 667 0 l 271 0 q 122 46 168 0 q 76 194 76 92 l 76 958 q 122 1107 76 1061 q 271 1153 168 1153 l 653 1153 l 653 1022 l 281 1022 q 233 1008 249 1022 q 218 960 218 993 l 218 660 l 507 660 l 507 529 l 218 529 l 218 193 m 156 1325 l 392 1461 l 629 1325 l 569 1226 l 392 1328 l 214 1226 l 156 1325 z "},"Ë":{"ha":699,"x_min":76,"x_max":667,"o":"m 218 193 q 233 145 218 160 q 281 131 249 131 l 667 131 l 667 0 l 271 0 q 122 46 168 0 q 76 194 76 92 l 76 958 q 122 1107 76 1061 q 271 1153 168 1153 l 653 1153 l 653 1022 l 281 1022 q 233 1008 249 1022 q 218 960 218 993 l 218 660 l 507 660 l 507 529 l 218 529 l 218 193 m 181 1332 q 208 1397 181 1369 q 272 1424 235 1424 q 335 1397 308 1424 q 361 1332 361 1369 q 335 1269 361 1296 q 272 1243 308 1243 q 208 1269 235 1243 q 181 1332 181 1296 m 424 1332 q 450 1397 424 1369 q 514 1424 476 1424 q 576 1397 550 1424 q 603 1332 603 1369 q 576 1269 603 1296 q 514 1243 550 1243 q 450 1269 476 1243 q 424 1332 424 1296 z "},"Ì":{"ha":294,"x_min":-7,"x_max":294,"o":"m 76 1153 l 218 1153 l 218 0 l 76 0 l 76 1153 m 53 1464 l 294 1325 l 236 1222 l -7 1360 l 53 1464 z "},"Í":{"ha":294,"x_min":10,"x_max":311,"o":"m 76 1153 l 218 1153 l 218 0 l 76 0 l 76 1153 m 10 1325 l 251 1464 l 311 1360 l 68 1222 l 10 1325 z "},"Î":{"ha":294,"x_min":-89,"x_max":385,"o":"m 76 1153 l 218 1153 l 218 0 l 76 0 l 76 1153 m -89 1325 l 147 1461 l 385 1325 l 325 1226 l 147 1328 l -31 1226 l -89 1325 z "},"Ï":{"ha":294,"x_min":-64,"x_max":358,"o":"m 76 1153 l 218 1153 l 218 0 l 76 0 l 76 1153 m -64 1332 q -37 1397 -64 1369 q 28 1424 -10 1424 q 90 1397 64 1424 q 117 1332 117 1369 q 90 1269 117 1296 q 28 1243 64 1243 q -37 1269 -10 1243 q -64 1332 -64 1296 m 179 1332 q 206 1397 179 1369 q 269 1424 232 1424 q 332 1397 306 1424 q 358 1332 358 1369 q 332 1269 358 1296 q 269 1243 306 1243 q 206 1269 232 1243 q 179 1332 179 1296 z "},"Ð":{"ha":886,"x_min":0,"x_max":764,"o":"m 0 644 l 76 644 l 76 1153 l 569 1153 q 718 1107 672 1153 q 764 958 764 1061 l 764 194 q 718 46 764 92 q 569 0 672 0 l 76 0 l 76 525 l 0 525 l 0 644 m 560 131 q 606 145 592 131 q 621 193 621 160 l 621 960 q 606 1008 621 993 q 560 1022 592 1022 l 218 1022 l 218 644 l 522 644 l 522 525 l 218 525 l 218 131 l 560 131 z "},"Ñ":{"ha":844,"x_min":76,"x_max":768,"o":"m 76 1153 l 251 1153 l 626 260 l 626 1153 l 768 1153 l 768 0 l 593 0 l 218 890 l 218 0 l 76 0 l 76 1153 m 250 1322 l 401 1404 l 481 1357 l 572 1404 l 632 1307 l 481 1225 l 401 1272 l 310 1225 l 250 1322 z "},"Ò":{"ha":831,"x_min":72,"x_max":760,"o":"m 72 958 q 118 1107 72 1061 q 267 1153 164 1153 l 565 1153 q 714 1107 668 1153 q 760 958 760 1061 l 760 194 q 714 46 760 92 q 565 0 668 0 l 267 0 q 118 46 164 0 q 72 194 72 92 l 72 958 m 556 131 q 603 145 588 131 q 618 193 618 160 l 618 960 q 603 1008 618 993 q 556 1022 588 1022 l 276 1022 q 230 1008 244 1022 q 215 960 215 993 l 215 193 q 230 145 215 160 q 276 131 244 131 l 556 131 m 319 1464 l 561 1325 l 503 1222 l 260 1360 l 319 1464 z "},"Ó":{"ha":831,"x_min":72,"x_max":760,"o":"m 72 958 q 118 1107 72 1061 q 267 1153 164 1153 l 565 1153 q 714 1107 668 1153 q 760 958 760 1061 l 760 194 q 714 46 760 92 q 565 0 668 0 l 267 0 q 118 46 164 0 q 72 194 72 92 l 72 958 m 556 131 q 603 145 588 131 q 618 193 618 160 l 618 960 q 603 1008 618 993 q 556 1022 588 1022 l 276 1022 q 230 1008 244 1022 q 215 960 215 993 l 215 193 q 230 145 215 160 q 276 131 244 131 l 556 131 m 278 1325 l 519 1464 l 579 1360 l 336 1222 l 278 1325 z "},"Ô":{"ha":831,"x_min":72,"x_max":760,"o":"m 72 958 q 118 1107 72 1061 q 267 1153 164 1153 l 565 1153 q 714 1107 668 1153 q 760 958 760 1061 l 760 194 q 714 46 760 92 q 565 0 668 0 l 267 0 q 118 46 164 0 q 72 194 72 92 l 72 958 m 556 131 q 603 145 588 131 q 618 193 618 160 l 618 960 q 603 1008 618 993 q 556 1022 588 1022 l 276 1022 q 230 1008 244 1022 q 215 960 215 993 l 215 193 q 230 145 215 160 q 276 131 244 131 l 556 131 m 179 1325 l 415 1461 l 653 1325 l 593 1226 l 415 1328 l 238 1226 l 179 1325 z "},"Õ":{"ha":831,"x_min":72,"x_max":760,"o":"m 72 958 q 118 1107 72 1061 q 267 1153 164 1153 l 565 1153 q 714 1107 668 1153 q 760 958 760 1061 l 760 194 q 714 46 760 92 q 565 0 668 0 l 267 0 q 118 46 164 0 q 72 194 72 92 l 72 958 m 556 131 q 603 145 588 131 q 618 193 618 160 l 618 960 q 603 1008 618 993 q 556 1022 588 1022 l 276 1022 q 230 1008 244 1022 q 215 960 215 993 l 215 193 q 230 145 215 160 q 276 131 244 131 l 556 131 m 231 1322 l 382 1404 l 461 1357 l 553 1404 l 613 1307 l 461 1225 l 382 1272 l 290 1225 l 231 1322 z "},"Ö":{"ha":831,"x_min":72,"x_max":760,"o":"m 72 958 q 118 1107 72 1061 q 267 1153 164 1153 l 565 1153 q 714 1107 668 1153 q 760 958 760 1061 l 760 194 q 714 46 760 92 q 565 0 668 0 l 267 0 q 118 46 164 0 q 72 194 72 92 l 72 958 m 556 131 q 603 145 588 131 q 618 193 618 160 l 618 960 q 603 1008 618 993 q 556 1022 588 1022 l 276 1022 q 230 1008 244 1022 q 215 960 215 993 l 215 193 q 230 145 215 160 q 276 131 244 131 l 556 131 m 204 1332 q 231 1397 204 1369 q 296 1424 258 1424 q 358 1397 332 1424 q 385 1332 385 1369 q 358 1269 385 1296 q 296 1243 332 1243 q 231 1269 258 1243 q 204 1332 204 1296 m 447 1332 q 474 1397 447 1369 q 538 1424 500 1424 q 600 1397 574 1424 q 626 1332 626 1369 q 600 1269 626 1296 q 538 1243 574 1243 q 474 1269 500 1243 q 447 1332 447 1296 z "},"×":{"ha":633,"x_min":64,"x_max":569,"o":"m 222 647 l 64 804 l 160 900 l 317 742 l 475 900 l 569 806 l 411 647 l 569 490 l 474 394 l 317 553 l 158 394 l 64 489 l 222 647 z "},"Ø":{"ha":822,"x_min":60,"x_max":764,"o":"m 104 56 q 67 194 67 104 l 67 958 q 113 1107 67 1061 q 261 1153 158 1153 l 560 1153 q 583 1152 572 1153 q 606 1150 594 1151 l 626 1194 l 764 1194 l 718 1094 q 754 958 754 1050 l 754 194 q 708 46 754 92 q 560 0 663 0 l 261 0 q 240 1 250 0 q 218 3 229 1 l 199 -42 l 60 -42 l 104 56 m 547 1022 l 271 1022 q 224 1008 239 1022 q 210 960 210 993 l 210 285 l 547 1022 m 550 131 q 597 145 582 131 q 613 193 613 160 l 613 863 l 278 131 l 550 131 z "},"Ù":{"ha":836,"x_min":74,"x_max":761,"o":"m 217 1153 l 217 193 q 231 145 217 160 q 279 131 246 131 l 557 131 q 605 145 590 131 q 619 193 619 160 l 619 1153 l 761 1153 l 761 194 q 715 46 761 92 q 567 0 669 0 l 268 0 q 119 46 165 0 q 74 194 74 92 l 74 1153 l 217 1153 m 322 1464 l 564 1325 l 506 1222 l 263 1360 l 322 1464 z "},"Ú":{"ha":836,"x_min":74,"x_max":761,"o":"m 217 1153 l 217 193 q 231 145 217 160 q 279 131 246 131 l 557 131 q 605 145 590 131 q 619 193 619 160 l 619 1153 l 761 1153 l 761 194 q 715 46 761 92 q 567 0 669 0 l 268 0 q 119 46 165 0 q 74 194 74 92 l 74 1153 l 217 1153 m 281 1325 l 522 1464 l 582 1360 l 339 1222 l 281 1325 z "},"Û":{"ha":836,"x_min":74,"x_max":761,"o":"m 217 1153 l 217 193 q 231 145 217 160 q 279 131 246 131 l 557 131 q 605 145 590 131 q 619 193 619 160 l 619 1153 l 761 1153 l 761 194 q 715 46 761 92 q 567 0 669 0 l 268 0 q 119 46 165 0 q 74 194 74 92 l 74 1153 l 217 1153 m 181 1325 l 417 1461 l 654 1325 l 594 1226 l 417 1328 l 239 1226 l 181 1325 z "},"Ü":{"ha":836,"x_min":74,"x_max":761,"o":"m 217 1153 l 217 193 q 231 145 217 160 q 279 131 246 131 l 557 131 q 605 145 590 131 q 619 193 619 160 l 619 1153 l 761 1153 l 761 194 q 715 46 761 92 q 567 0 669 0 l 268 0 q 119 46 165 0 q 74 194 74 92 l 74 1153 l 217 1153 m 206 1332 q 233 1397 206 1369 q 297 1424 260 1424 q 360 1397 333 1424 q 386 1332 386 1369 q 360 1269 386 1296 q 297 1243 333 1243 q 233 1269 260 1243 q 206 1332 206 1296 m 449 1332 q 475 1397 449 1369 q 539 1424 501 1424 q 601 1397 575 1424 q 628 1332 628 1369 q 601 1269 628 1296 q 539 1243 575 1243 q 475 1269 501 1243 q 449 1332 449 1296 z "},"Ý":{"ha":804,"x_min":65,"x_max":739,"o":"m 331 297 l 260 297 q 111 342 157 297 q 65 490 65 388 l 65 1153 l 207 1153 l 207 489 q 269 428 207 428 l 535 428 q 596 489 596 428 l 596 1153 l 739 1153 l 739 490 q 693 342 739 388 q 544 297 647 297 l 474 297 l 474 0 l 331 0 l 331 297 m 253 1325 l 494 1464 l 554 1360 l 311 1222 l 253 1325 z "},"Þ":{"ha":790,"x_min":76,"x_max":725,"o":"m 76 1153 l 218 1153 l 218 944 l 531 944 q 679 899 633 944 q 725 750 725 853 l 725 369 q 679 222 725 267 q 531 176 633 176 l 218 176 l 218 0 l 76 0 l 76 1153 m 521 307 q 569 322 554 307 q 583 368 583 336 l 583 751 q 569 799 583 785 q 521 814 554 814 l 218 814 l 218 307 l 521 307 z "},"ß":{"ha":951,"x_min":76,"x_max":886,"o":"m 76 1000 q 122 1149 76 1103 q 271 1194 168 1194 l 488 1194 q 635 1149 589 1194 q 681 1001 681 1103 l 681 839 q 671 775 681 800 l 692 775 q 840 729 794 775 q 886 581 886 683 l 886 194 q 840 46 886 92 q 692 0 794 0 l 489 0 q 340 46 386 0 q 294 194 294 92 l 294 308 l 436 308 l 436 193 q 451 145 436 160 q 499 131 467 131 l 681 131 q 728 145 714 131 q 743 193 743 160 l 743 593 q 728 641 743 626 q 681 656 714 656 l 426 656 l 426 775 l 476 775 q 524 790 510 775 q 539 838 539 804 l 539 1001 q 524 1049 539 1035 q 476 1064 510 1064 l 281 1064 q 233 1049 249 1064 q 218 1001 218 1035 l 218 -122 l 76 -122 l 76 1000 z "},"à":{"ha":738,"x_min":67,"x_max":671,"o":"m 238 0 q 107 40 147 0 q 67 171 67 81 l 67 774 q 107 904 67 864 q 238 944 147 944 l 500 944 q 631 904 590 944 q 671 774 671 864 l 671 0 l 540 0 l 540 778 q 493 825 540 825 l 246 825 q 197 778 197 825 l 197 167 q 246 119 197 119 l 463 119 l 463 0 l 238 0 m 274 1256 l 515 1117 l 457 1014 l 214 1151 l 274 1256 z "},"á":{"ha":738,"x_min":67,"x_max":671,"o":"m 238 0 q 107 40 147 0 q 67 171 67 81 l 67 774 q 107 904 67 864 q 238 944 147 944 l 500 944 q 631 904 590 944 q 671 774 671 864 l 671 0 l 540 0 l 540 778 q 493 825 540 825 l 246 825 q 197 778 197 825 l 197 167 q 246 119 197 119 l 463 119 l 463 0 l 238 0 m 231 1117 l 472 1256 l 532 1151 l 289 1014 l 231 1117 z "},"â":{"ha":738,"x_min":67,"x_max":671,"o":"m 238 0 q 107 40 147 0 q 67 171 67 81 l 67 774 q 107 904 67 864 q 238 944 147 944 l 500 944 q 631 904 590 944 q 671 774 671 864 l 671 0 l 540 0 l 540 778 q 493 825 540 825 l 246 825 q 197 778 197 825 l 197 167 q 246 119 197 119 l 463 119 l 463 0 l 238 0 m 132 1117 l 368 1253 l 606 1117 l 546 1018 l 368 1119 l 190 1018 l 132 1117 z "},"ã":{"ha":738,"x_min":67,"x_max":671,"o":"m 238 0 q 107 40 147 0 q 67 171 67 81 l 67 774 q 107 904 67 864 q 238 944 147 944 l 500 944 q 631 904 590 944 q 671 774 671 864 l 671 0 l 540 0 l 540 778 q 493 825 540 825 l 246 825 q 197 778 197 825 l 197 167 q 246 119 197 119 l 463 119 l 463 0 l 238 0 m 183 1114 l 335 1196 l 414 1149 l 506 1196 l 565 1099 l 414 1017 l 335 1064 l 243 1017 l 183 1114 z "},"ä":{"ha":738,"x_min":67,"x_max":671,"o":"m 238 0 q 107 40 147 0 q 67 171 67 81 l 67 774 q 107 904 67 864 q 238 944 147 944 l 500 944 q 631 904 590 944 q 671 774 671 864 l 671 0 l 540 0 l 540 778 q 493 825 540 825 l 246 825 q 197 778 197 825 l 197 167 q 246 119 197 119 l 463 119 l 463 0 l 238 0 m 157 1124 q 184 1188 157 1161 q 249 1215 211 1215 q 311 1188 285 1215 q 338 1124 338 1161 q 311 1061 338 1088 q 249 1035 285 1035 q 184 1061 211 1035 q 157 1124 157 1088 m 400 1124 q 426 1188 400 1161 q 490 1215 453 1215 q 553 1188 526 1215 q 579 1124 579 1161 q 553 1061 579 1088 q 490 1035 526 1035 q 426 1061 453 1035 q 400 1124 400 1088 z "},"å":{"ha":738,"x_min":67,"x_max":671,"o":"m 238 0 q 107 40 147 0 q 67 171 67 81 l 67 774 q 107 904 67 864 q 238 944 147 944 l 500 944 q 631 904 590 944 q 671 774 671 864 l 671 0 l 540 0 l 540 778 q 493 825 540 825 l 246 825 q 197 778 197 825 l 197 167 q 246 119 197 119 l 463 119 l 463 0 l 238 0 m 239 1131 q 249 1181 239 1157 q 277 1222 260 1204 q 318 1249 294 1239 q 368 1260 342 1260 q 419 1249 396 1260 q 460 1222 443 1239 q 488 1181 478 1204 q 499 1131 499 1157 q 488 1080 499 1104 q 460 1038 478 1056 q 419 1010 443 1021 q 368 1000 396 1000 q 318 1010 342 1000 q 277 1038 294 1021 q 249 1080 260 1056 q 239 1131 239 1104 m 324 1131 q 337 1098 324 1111 q 368 1085 350 1085 q 401 1098 388 1085 q 414 1131 414 1111 q 401 1163 414 1150 q 368 1176 388 1176 q 337 1163 350 1176 q 324 1131 324 1150 z "},"æ":{"ha":1163,"x_min":65,"x_max":1099,"o":"m 244 442 q 197 393 197 442 l 197 167 q 244 119 197 119 l 475 119 q 522 167 522 119 l 522 778 q 475 825 522 825 l 257 825 q 210 778 210 825 l 210 664 l 78 664 l 78 774 q 118 904 78 864 q 249 944 158 944 l 483 944 q 589 918 553 944 q 693 944 625 944 l 928 944 q 1058 904 1018 944 q 1099 774 1099 864 l 1099 613 q 1058 482 1099 522 q 928 442 1018 442 l 719 442 l 719 561 l 919 561 q 967 608 967 561 l 967 778 q 919 825 967 825 l 701 825 q 654 778 654 825 l 654 167 q 701 119 654 119 l 907 119 q 954 167 954 119 l 954 281 l 1086 281 l 1086 171 q 1046 40 1086 81 q 915 0 1006 0 l 693 0 q 589 26 625 0 q 483 0 553 0 l 236 0 q 106 40 146 0 q 65 171 65 81 l 65 390 q 106 521 65 481 q 236 561 146 561 l 456 561 l 456 442 l 244 442 z "},"ç":{"ha":740,"x_min":71,"x_max":675,"o":"m 675 308 l 675 171 q 635 40 675 81 q 504 0 594 0 l 242 0 q 111 40 151 0 q 71 171 71 81 l 71 774 q 111 904 71 864 q 242 944 151 944 l 504 944 q 635 904 594 944 q 675 774 675 864 l 675 636 l 544 636 l 544 778 q 497 825 544 825 l 250 825 q 201 778 201 825 l 201 167 q 213 130 201 140 q 250 119 224 119 l 497 119 q 544 167 544 119 l 544 308 l 675 308 m 314 -139 q 342 -156 325 -149 q 376 -164 360 -164 q 405 -153 393 -164 q 417 -124 417 -143 q 409 -97 417 -107 q 389 -83 401 -87 q 362 -76 376 -78 q 333 -75 347 -75 l 299 7 l 411 7 q 490 -51 465 -15 q 514 -129 514 -86 q 474 -222 514 -190 q 378 -253 433 -253 q 326 -246 351 -253 q 276 -224 300 -239 l 314 -139 z "},"è":{"ha":740,"x_min":71,"x_max":675,"o":"m 269 474 l 497 474 q 544 522 544 474 l 544 778 q 497 825 544 825 l 250 825 q 201 778 201 825 l 201 167 q 250 119 201 119 l 485 119 q 532 167 532 119 l 532 297 l 663 297 l 663 171 q 622 40 663 81 q 492 0 582 0 l 242 0 q 111 40 151 0 q 71 171 71 81 l 71 774 q 111 904 71 864 q 242 944 151 944 l 504 944 q 635 904 594 944 q 675 774 675 864 l 675 525 q 635 394 675 435 q 504 354 594 354 l 269 354 l 269 474 m 278 1256 l 519 1117 l 461 1014 l 218 1151 l 278 1256 z "},"é":{"ha":740,"x_min":71,"x_max":675,"o":"m 269 474 l 497 474 q 544 522 544 474 l 544 778 q 497 825 544 825 l 250 825 q 201 778 201 825 l 201 167 q 250 119 201 119 l 485 119 q 532 167 532 119 l 532 297 l 663 297 l 663 171 q 622 40 663 81 q 492 0 582 0 l 242 0 q 111 40 151 0 q 71 171 71 81 l 71 774 q 111 904 71 864 q 242 944 151 944 l 504 944 q 635 904 594 944 q 675 774 675 864 l 675 525 q 635 394 675 435 q 504 354 594 354 l 269 354 l 269 474 m 236 1117 l 478 1256 l 538 1151 l 294 1014 l 236 1117 z "},"ê":{"ha":740,"x_min":71,"x_max":675,"o":"m 269 474 l 497 474 q 544 522 544 474 l 544 778 q 497 825 544 825 l 250 825 q 201 778 201 825 l 201 167 q 250 119 201 119 l 485 119 q 532 167 532 119 l 532 297 l 663 297 l 663 171 q 622 40 663 81 q 492 0 582 0 l 242 0 q 111 40 151 0 q 71 171 71 81 l 71 774 q 111 904 71 864 q 242 944 151 944 l 504 944 q 635 904 594 944 q 675 774 675 864 l 675 525 q 635 394 675 435 q 504 354 594 354 l 269 354 l 269 474 m 136 1117 l 372 1253 l 610 1117 l 550 1018 l 372 1119 l 194 1018 l 136 1117 z "},"ë":{"ha":740,"x_min":71,"x_max":675,"o":"m 269 474 l 497 474 q 544 522 544 474 l 544 778 q 497 825 544 825 l 250 825 q 201 778 201 825 l 201 167 q 250 119 201 119 l 485 119 q 532 167 532 119 l 532 297 l 663 297 l 663 171 q 622 40 663 81 q 492 0 582 0 l 242 0 q 111 40 151 0 q 71 171 71 81 l 71 774 q 111 904 71 864 q 242 944 151 944 l 504 944 q 635 904 594 944 q 675 774 675 864 l 675 525 q 635 394 675 435 q 504 354 594 354 l 269 354 l 269 474 m 161 1124 q 188 1188 161 1161 q 253 1215 215 1215 q 315 1188 289 1215 q 342 1124 342 1161 q 315 1061 342 1088 q 253 1035 289 1035 q 188 1061 215 1035 q 161 1124 161 1088 m 404 1124 q 431 1188 404 1161 q 494 1215 457 1215 q 557 1188 531 1215 q 583 1124 583 1161 q 557 1061 583 1088 q 494 1035 531 1035 q 431 1061 457 1035 q 404 1124 404 1088 z "},"ì":{"ha":311,"x_min":0,"x_max":301,"o":"m 90 944 l 221 944 l 221 0 l 90 0 l 90 944 m 60 1256 l 301 1117 l 243 1014 l 0 1151 l 60 1256 z "},"í":{"ha":311,"x_min":18,"x_max":319,"o":"m 90 944 l 221 944 l 221 0 l 90 0 l 90 944 m 18 1117 l 260 1256 l 319 1151 l 76 1014 l 18 1117 z "},"î":{"ha":311,"x_min":-81,"x_max":393,"o":"m 90 944 l 221 944 l 221 0 l 90 0 l 90 944 m -81 1117 l 156 1253 l 393 1117 l 333 1018 l 156 1119 l -22 1018 l -81 1117 z "},"ï":{"ha":311,"x_min":-56,"x_max":367,"o":"m 90 944 l 221 944 l 221 0 l 90 0 l 90 944 m -56 1124 q -28 1188 -56 1161 q 36 1215 -1 1215 q 99 1188 72 1215 q 125 1124 125 1161 q 99 1061 125 1088 q 36 1035 72 1035 q -28 1061 -1 1035 q -56 1124 -56 1088 m 188 1124 q 214 1188 188 1161 q 278 1215 240 1215 q 340 1188 314 1215 q 367 1124 367 1161 q 340 1061 367 1088 q 278 1035 314 1035 q 214 1061 240 1035 q 188 1124 188 1088 z "},"ð":{"ha":789,"x_min":68,"x_max":718,"o":"m 274 675 q 226 660 240 675 q 211 613 211 646 l 211 193 q 226 145 211 160 q 274 131 240 131 l 514 131 q 560 145 546 131 q 575 193 575 160 l 575 968 q 560 1016 575 1001 q 514 1031 546 1031 l 379 1031 l 240 897 l 156 982 l 210 1031 l 103 1031 l 103 1161 l 340 1161 l 499 1319 l 583 1236 l 508 1161 l 524 1161 q 672 1115 626 1161 q 718 967 718 1069 l 718 194 q 672 46 718 92 q 524 0 626 0 l 263 0 q 114 46 160 0 q 68 194 68 92 l 68 611 q 114 760 68 714 q 263 806 160 806 l 478 806 l 478 675 l 274 675 z "},"ñ":{"ha":746,"x_min":71,"x_max":675,"o":"m 71 774 q 111 904 71 864 q 242 944 151 944 l 504 944 q 635 904 594 944 q 675 774 675 864 l 675 0 l 544 0 l 544 778 q 496 825 544 825 l 249 825 q 201 778 201 825 l 201 0 l 71 0 l 71 774 m 200 1114 l 351 1196 l 431 1149 l 522 1196 l 582 1099 l 431 1017 l 351 1064 l 260 1017 l 200 1114 z "},"ò":{"ha":738,"x_min":67,"x_max":671,"o":"m 67 774 q 107 904 67 864 q 238 944 147 944 l 500 944 q 631 904 590 944 q 671 774 671 864 l 671 171 q 631 40 671 81 q 500 0 590 0 l 238 0 q 107 40 147 0 q 67 171 67 81 l 67 774 m 493 119 q 540 167 540 119 l 540 778 q 493 825 540 825 l 246 825 q 197 778 197 825 l 197 167 q 246 119 197 119 l 493 119 m 285 1256 l 526 1117 l 468 1014 l 225 1151 l 285 1256 z "},"ó":{"ha":738,"x_min":67,"x_max":671,"o":"m 67 774 q 107 904 67 864 q 238 944 147 944 l 500 944 q 631 904 590 944 q 671 774 671 864 l 671 171 q 631 40 671 81 q 500 0 590 0 l 238 0 q 107 40 147 0 q 67 171 67 81 l 67 774 m 493 119 q 540 167 540 119 l 540 778 q 493 825 540 825 l 246 825 q 197 778 197 825 l 197 167 q 246 119 197 119 l 493 119 m 242 1117 l 483 1256 l 543 1151 l 300 1014 l 242 1117 z "},"ô":{"ha":738,"x_min":67,"x_max":671,"o":"m 67 774 q 107 904 67 864 q 238 944 147 944 l 500 944 q 631 904 590 944 q 671 774 671 864 l 671 171 q 631 40 671 81 q 500 0 590 0 l 238 0 q 107 40 147 0 q 67 171 67 81 l 67 774 m 493 119 q 540 167 540 119 l 540 778 q 493 825 540 825 l 246 825 q 197 778 197 825 l 197 167 q 246 119 197 119 l 493 119 m 143 1117 l 379 1253 l 617 1117 l 557 1018 l 379 1119 l 201 1018 l 143 1117 z "},"õ":{"ha":738,"x_min":67,"x_max":671,"o":"m 67 774 q 107 904 67 864 q 238 944 147 944 l 500 944 q 631 904 590 944 q 671 774 671 864 l 671 171 q 631 40 671 81 q 500 0 590 0 l 238 0 q 107 40 147 0 q 67 171 67 81 l 67 774 m 493 119 q 540 167 540 119 l 540 778 q 493 825 540 825 l 246 825 q 197 778 197 825 l 197 167 q 246 119 197 119 l 493 119 m 196 1114 l 347 1196 l 426 1149 l 518 1196 l 578 1099 l 426 1017 l 347 1064 l 256 1017 l 196 1114 z "},"ö":{"ha":738,"x_min":67,"x_max":671,"o":"m 67 774 q 107 904 67 864 q 238 944 147 944 l 500 944 q 631 904 590 944 q 671 774 671 864 l 671 171 q 631 40 671 81 q 500 0 590 0 l 238 0 q 107 40 147 0 q 67 171 67 81 l 67 774 m 493 119 q 540 167 540 119 l 540 778 q 493 825 540 825 l 246 825 q 197 778 197 825 l 197 167 q 246 119 197 119 l 493 119 m 168 1124 q 195 1188 168 1161 q 260 1215 222 1215 q 322 1188 296 1215 q 349 1124 349 1161 q 322 1061 349 1088 q 260 1035 296 1035 q 195 1061 222 1035 q 168 1124 168 1088 m 411 1124 q 438 1188 411 1161 q 501 1215 464 1215 q 564 1188 538 1215 q 590 1124 590 1161 q 564 1061 590 1088 q 501 1035 538 1035 q 438 1061 464 1035 q 411 1124 411 1088 z "},"÷":{"ha":788,"x_min":47,"x_max":740,"o":"m 301 394 q 328 461 301 433 q 394 489 356 489 q 459 461 432 489 q 486 394 486 433 q 459 331 486 357 q 394 304 432 304 q 328 331 356 304 q 301 394 301 357 m 301 896 q 328 962 301 935 q 394 989 356 989 q 459 962 432 989 q 486 896 486 935 q 459 831 486 858 q 394 804 432 804 q 328 831 356 804 q 301 896 301 858 m 47 707 l 740 707 l 740 588 l 47 588 l 47 707 z "},"ø":{"ha":738,"x_min":56,"x_max":671,"o":"m 99 50 q 67 171 67 90 l 67 774 q 107 904 67 864 q 238 944 147 944 l 500 944 l 521 944 l 540 986 l 671 986 l 632 903 q 671 774 671 863 l 671 171 q 631 40 671 81 q 500 0 590 0 l 238 0 q 223 0 231 0 q 208 1 215 0 l 189 -42 l 56 -42 l 99 50 m 464 825 l 246 825 q 197 778 197 825 l 197 260 l 464 825 m 493 119 q 540 167 540 119 l 540 707 l 264 119 l 493 119 z "},"ù":{"ha":735,"x_min":71,"x_max":664,"o":"m 201 944 l 201 167 q 249 119 201 119 l 485 119 q 532 167 532 119 l 532 944 l 664 944 l 664 171 q 624 40 664 81 q 493 0 583 0 l 242 0 q 111 40 151 0 q 71 171 71 81 l 71 944 l 201 944 m 272 1256 l 514 1117 l 456 1014 l 213 1151 l 272 1256 z "},"ú":{"ha":735,"x_min":71,"x_max":664,"o":"m 201 944 l 201 167 q 249 119 201 119 l 485 119 q 532 167 532 119 l 532 944 l 664 944 l 664 171 q 624 40 664 81 q 493 0 583 0 l 242 0 q 111 40 151 0 q 71 171 71 81 l 71 944 l 201 944 m 231 1117 l 472 1256 l 532 1151 l 289 1014 l 231 1117 z "},"û":{"ha":735,"x_min":71,"x_max":664,"o":"m 201 944 l 201 167 q 249 119 201 119 l 485 119 q 532 167 532 119 l 532 944 l 664 944 l 664 171 q 624 40 664 81 q 493 0 583 0 l 242 0 q 111 40 151 0 q 71 171 71 81 l 71 944 l 201 944 m 131 1117 l 367 1253 l 604 1117 l 544 1018 l 367 1119 l 189 1018 l 131 1117 z "},"ü":{"ha":735,"x_min":71,"x_max":664,"o":"m 201 944 l 201 167 q 249 119 201 119 l 485 119 q 532 167 532 119 l 532 944 l 664 944 l 664 171 q 624 40 664 81 q 493 0 583 0 l 242 0 q 111 40 151 0 q 71 171 71 81 l 71 944 l 201 944 m 156 1124 q 183 1188 156 1161 q 247 1215 210 1215 q 310 1188 283 1215 q 336 1124 336 1161 q 310 1061 336 1088 q 247 1035 283 1035 q 183 1061 210 1035 q 156 1124 156 1088 m 399 1124 q 425 1188 399 1161 q 489 1215 451 1215 q 551 1188 525 1215 q 578 1124 578 1161 q 551 1061 578 1088 q 489 1035 525 1035 q 425 1061 451 1035 q 399 1124 399 1088 z "},"ý":{"ha":761,"x_min":71,"x_max":663,"o":"m 257 -117 l 485 -117 q 532 -69 532 -117 l 532 13 q 481 0 511 0 l 242 0 q 111 40 151 0 q 71 171 71 81 l 71 944 l 203 944 l 203 167 q 250 119 203 119 l 485 119 q 532 167 532 119 l 532 944 l 663 944 l 663 -65 q 622 -196 663 -156 q 492 -236 582 -236 l 257 -236 l 257 -117 m 240 1117 l 482 1256 l 542 1151 l 299 1014 l 240 1117 z "},"þ":{"ha":768,"x_min":76,"x_max":703,"o":"m 76 1194 l 207 1194 l 207 944 l 532 944 q 663 904 622 944 q 703 774 703 864 l 703 171 q 663 40 703 81 q 532 0 622 0 l 207 0 l 207 -236 l 76 -236 l 76 1194 m 525 119 q 572 167 572 119 l 572 778 q 525 825 572 825 l 207 825 l 207 119 l 525 119 z "},"ÿ":{"ha":761,"x_min":71,"x_max":663,"o":"m 257 -117 l 485 -117 q 532 -69 532 -117 l 532 13 q 481 0 511 0 l 242 0 q 111 40 151 0 q 71 171 71 81 l 71 944 l 203 944 l 203 167 q 250 119 203 119 l 485 119 q 532 167 532 119 l 532 944 l 663 944 l 663 -65 q 622 -196 663 -156 q 492 -236 582 -236 l 257 -236 l 257 -117 m 167 1124 q 194 1188 167 1161 q 258 1215 221 1215 q 321 1188 294 1215 q 347 1124 347 1161 q 321 1061 347 1088 q 258 1035 294 1035 q 194 1061 221 1035 q 167 1124 167 1088 m 410 1124 q 436 1188 410 1161 q 500 1215 463 1215 q 563 1188 536 1215 q 589 1124 589 1161 q 563 1061 589 1088 q 500 1035 536 1035 q 436 1061 463 1035 q 410 1124 410 1088 z "},"Đ":{"ha":835,"x_min":0,"x_max":764,"o":"m 0 644 l 76 644 l 76 1153 l 569 1153 q 718 1107 672 1153 q 764 958 764 1061 l 764 194 q 718 46 764 92 q 569 0 672 0 l 76 0 l 76 525 l 0 525 l 0 644 m 560 131 q 606 145 592 131 q 621 193 621 160 l 621 960 q 606 1008 621 993 q 560 1022 592 1022 l 218 1022 l 218 644 l 522 644 l 522 525 l 218 525 l 218 131 l 560 131 z "},"đ":{"ha":768,"x_min":65,"x_max":768,"o":"m 242 1113 l 550 1113 l 550 1194 l 681 1194 l 681 1113 l 768 1113 l 768 1038 l 681 1038 l 681 171 q 640 40 681 81 q 510 0 600 0 l 236 0 q 106 40 146 0 q 65 171 65 81 l 65 774 q 106 904 65 864 q 236 944 146 944 l 499 944 q 550 936 529 944 l 550 1038 l 242 1038 l 242 1113 m 503 119 q 550 167 550 119 l 550 778 q 503 825 550 825 l 244 825 q 196 778 196 825 l 196 167 q 244 119 196 119 l 503 119 z "},"ı":{"ha":311,"x_min":90,"x_max":221,"o":"m 90 944 l 221 944 l 221 0 l 90 0 l 90 944 z "},"Ł":{"ha":633,"x_min":-12,"x_max":625,"o":"m -12 253 l 76 342 l 76 1153 l 218 1153 l 218 483 l 422 686 l 511 597 l 218 307 l 218 188 q 275 131 218 131 l 625 131 l 625 0 l 247 0 q 118 39 158 0 q 76 165 78 78 l 76 164 l -12 253 z "},"ł":{"ha":363,"x_min":-25,"x_max":389,"o":"m 76 311 l 53 286 l -25 365 l 76 468 l 76 1194 l 207 1194 l 207 600 l 311 703 l 389 624 l 207 443 l 207 0 l 76 0 l 76 311 z "},"Œ":{"ha":1218,"x_min":72,"x_max":1185,"o":"m 656 25 q 538 0 613 0 l 267 0 q 118 46 164 0 q 72 194 72 92 l 72 958 q 118 1107 72 1061 q 267 1153 164 1153 l 538 1153 q 656 1128 613 1153 l 656 1153 l 1174 1153 l 1174 1022 l 732 1022 l 732 663 l 1039 663 l 1039 532 l 732 532 l 732 131 l 1185 131 l 1185 0 l 656 0 l 656 25 m 526 131 q 574 145 560 131 q 589 193 589 160 l 589 960 q 574 1008 589 993 q 526 1022 560 1022 l 276 1022 q 228 1008 243 1022 q 214 960 214 993 l 214 193 q 228 145 214 160 q 276 131 243 131 l 526 131 z "},"œ":{"ha":1176,"x_min":67,"x_max":1111,"o":"m 729 456 l 932 456 q 981 504 981 456 l 981 778 q 932 825 981 825 l 703 825 q 654 778 654 825 l 654 167 q 703 119 654 119 l 919 119 q 968 167 968 119 l 968 269 l 1099 269 l 1099 171 q 1058 40 1099 81 q 928 0 1018 0 l 694 0 q 589 26 625 0 q 483 0 553 0 l 238 0 q 107 40 147 0 q 67 171 67 81 l 67 774 q 107 904 67 864 q 238 944 147 944 l 483 944 q 589 918 553 944 q 694 944 625 944 l 940 944 q 1071 904 1031 944 q 1111 774 1111 864 l 1111 507 q 1071 376 1111 417 q 940 336 1031 336 l 729 336 l 729 456 m 475 119 q 524 167 524 119 l 524 778 q 475 825 524 825 l 246 825 q 197 778 197 825 l 197 167 q 246 119 197 119 l 475 119 z "},"Š":{"ha":818,"x_min":65,"x_max":753,"o":"m 207 382 l 207 193 q 222 145 207 160 q 269 131 238 131 l 549 131 q 595 145 581 131 q 610 193 610 160 l 610 468 q 549 529 610 529 l 271 529 q 122 575 168 529 q 76 724 76 621 l 76 958 q 122 1107 76 1061 q 271 1153 168 1153 l 544 1153 q 693 1107 647 1153 q 739 958 739 1061 l 739 772 l 596 772 l 596 960 q 581 1008 596 993 q 535 1022 567 1022 l 281 1022 q 233 1008 249 1022 q 218 960 218 993 l 218 722 q 281 660 218 660 l 558 660 q 707 613 661 660 q 753 463 753 565 l 753 194 q 707 46 753 92 q 558 0 661 0 l 260 0 q 111 46 157 0 q 65 194 65 92 l 65 382 l 207 382 m 231 1460 l 408 1358 l 586 1460 l 646 1363 l 408 1226 l 172 1363 l 231 1460 z "},"š":{"ha":706,"x_min":65,"x_max":640,"o":"m 196 308 l 196 167 q 244 119 196 119 l 461 119 q 510 167 510 119 l 510 375 q 461 424 510 424 l 247 424 q 117 464 157 424 q 76 594 76 504 l 76 774 q 117 904 76 864 q 247 944 157 944 l 456 944 q 586 904 546 944 q 626 774 626 864 l 626 636 l 496 636 l 496 778 q 447 825 496 825 l 256 825 q 207 778 207 825 l 207 583 q 256 536 207 536 l 469 536 q 600 496 560 536 q 640 365 640 456 l 640 171 q 600 40 640 81 q 469 0 560 0 l 236 0 q 106 40 146 0 q 65 171 65 81 l 65 308 l 196 308 m 168 1251 l 346 1150 l 524 1251 l 583 1154 l 346 1018 l 110 1154 l 168 1251 z "},"Ÿ":{"ha":804,"x_min":65,"x_max":739,"o":"m 331 297 l 260 297 q 111 342 157 297 q 65 490 65 388 l 65 1153 l 207 1153 l 207 489 q 269 428 207 428 l 535 428 q 596 489 596 428 l 596 1153 l 739 1153 l 739 490 q 693 342 739 388 q 544 297 647 297 l 474 297 l 474 0 l 331 0 l 331 297 m 179 1332 q 206 1397 179 1369 q 271 1424 233 1424 q 333 1397 307 1424 q 360 1332 360 1369 q 333 1269 360 1296 q 271 1243 307 1243 q 206 1269 233 1243 q 179 1332 179 1296 m 422 1332 q 449 1397 422 1369 q 513 1424 475 1424 q 575 1397 549 1424 q 601 1332 601 1369 q 575 1269 601 1296 q 513 1243 549 1243 q 449 1269 475 1243 q 422 1332 422 1296 z "},"Ž":{"ha":753,"x_min":46,"x_max":707,"o":"m 46 150 l 549 1022 l 54 1022 l 54 1153 l 699 1153 l 699 1003 l 197 131 l 707 131 l 707 0 l 46 0 l 46 150 m 215 1460 l 393 1358 l 571 1460 l 631 1363 l 393 1226 l 157 1363 l 215 1460 z "},"ž":{"ha":589,"x_min":29,"x_max":560,"o":"m 29 136 l 425 825 l 43 825 l 43 944 l 560 944 l 560 810 l 164 119 l 560 119 l 560 0 l 29 0 l 29 136 m 114 1251 l 292 1150 l 469 1251 l 529 1154 l 292 1018 l 56 1154 l 114 1251 z "},"ƒ":{"ha":510,"x_min":3,"x_max":507,"o":"m 3 -117 l 106 -117 q 154 -69 154 -117 l 154 825 l 100 825 l 100 944 l 154 944 l 154 982 q 194 1113 154 1072 q 325 1153 235 1153 l 507 1153 l 507 1033 l 332 1033 q 285 986 285 1033 l 285 944 l 444 944 l 444 825 l 285 825 l 285 -65 q 244 -196 285 -156 q 114 -236 204 -236 l 3 -236 l 3 -117 z "},"ˆ":{"ha":785,"x_min":156,"x_max":629,"o":"m 156 839 l 392 975 l 629 839 l 569 740 l 392 842 l 214 740 l 156 839 z "},"ˇ":{"ha":785,"x_min":156,"x_max":629,"o":"m 214 974 l 392 872 l 569 974 l 629 876 l 392 740 l 156 876 l 214 974 z "},"˘":{"ha":671,"x_min":133,"x_max":536,"o":"m 133 919 l 253 919 l 253 846 l 417 846 l 417 919 l 536 919 l 536 749 l 133 749 l 133 919 z "},"˙":{"ha":506,"x_min":163,"x_max":343,"o":"m 163 846 q 190 910 163 883 q 254 938 217 938 q 317 910 290 938 q 343 846 343 883 q 317 783 343 810 q 254 757 290 757 q 190 783 217 757 q 163 846 163 810 z "},"˚":{"ha":396,"x_min":68,"x_max":328,"o":"m 68 854 q 78 904 68 881 q 106 945 89 928 q 147 973 124 963 q 197 983 171 983 q 249 973 225 983 q 290 945 272 963 q 317 904 307 928 q 328 854 328 881 q 317 803 328 828 q 290 762 307 779 q 249 734 272 744 q 197 724 225 724 q 147 734 171 724 q 106 762 124 744 q 78 803 89 779 q 68 854 68 828 m 153 854 q 166 822 153 835 q 197 808 179 808 q 230 822 217 808 q 243 854 243 835 q 230 887 243 874 q 197 900 217 900 q 166 887 179 900 q 153 854 153 874 z "},"˛":{"ha":303,"x_min":49,"x_max":261,"o":"m 261 -236 q 192 -246 224 -246 q 86 -209 124 -246 q 49 -119 49 -172 q 57 -71 49 -94 q 83 -28 65 -47 q 126 3 100 -10 q 188 18 153 15 l 188 -71 q 154 -87 165 -74 q 143 -118 143 -101 q 157 -150 143 -137 q 196 -162 171 -162 q 249 -150 219 -162 l 261 -236 z "},"˜":{"ha":1096,"x_min":357,"x_max":739,"o":"m 357 836 l 508 918 l 588 871 l 679 918 l 739 821 l 588 739 l 508 786 l 417 739 l 357 836 z "},"˝":{"ha":849,"x_min":200,"x_max":649,"o":"m 357 1010 l 450 935 l 290 738 l 200 811 l 357 1010 m 556 1010 l 649 935 l 489 738 l 397 811 l 556 1010 z "},"μ":{"ha":758,"x_min":76,"x_max":701,"o":"m 76 944 l 207 944 l 207 119 l 524 119 q 571 167 571 119 l 571 944 l 701 944 l 701 171 q 661 40 701 81 q 531 0 621 0 l 207 0 l 207 -236 l 76 -236 l 76 944 z "},"–":{"ha":1279,"x_min":47,"x_max":1232,"o":"m 47 532 l 1232 532 l 1232 413 l 47 413 l 47 532 z "},"—":{"ha":1664,"x_min":47,"x_max":1617,"o":"m 47 532 l 1617 532 l 1617 413 l 47 413 l 47 532 z "},"‘":{"ha":264,"x_min":60,"x_max":201,"o":"m 60 906 l 86 1194 l 201 1194 l 201 853 l 60 853 l 60 906 z "},"’":{"ha":265,"x_min":61,"x_max":204,"o":"m 61 1194 l 204 1194 l 204 1142 l 176 853 l 61 853 l 61 1194 z "},"‚":{"ha":267,"x_min":61,"x_max":204,"o":"m 61 103 l 204 103 l 204 8 l 176 -236 l 61 -236 l 61 103 z "},"“":{"ha":490,"x_min":60,"x_max":429,"o":"m 60 906 l 86 1194 l 201 1194 l 201 853 l 60 853 l 60 906 m 288 906 l 314 1194 l 429 1194 l 429 853 l 288 853 l 288 906 z "},"”":{"ha":490,"x_min":61,"x_max":429,"o":"m 61 1194 l 204 1194 l 204 1142 l 176 853 l 61 853 l 61 1194 m 286 1194 l 429 1194 l 429 1142 l 401 853 l 286 853 l 286 1194 z "},"„":{"ha":490,"x_min":61,"x_max":428,"o":"m 61 106 l 204 106 l 204 8 l 176 -236 l 61 -236 l 61 106 m 286 106 l 428 106 l 428 8 l 400 -236 l 286 -236 l 286 106 z "},"†":{"ha":642,"x_min":76,"x_max":565,"o":"m 250 824 l 76 824 l 76 943 l 250 943 l 250 1194 l 392 1194 l 392 943 l 565 943 l 565 824 l 392 824 l 392 0 l 250 0 l 250 824 z "},"‡":{"ha":642,"x_min":76,"x_max":565,"o":"m 250 251 l 76 251 l 76 371 l 250 371 l 250 824 l 76 824 l 76 943 l 250 943 l 250 1194 l 392 1194 l 392 943 l 565 943 l 565 824 l 392 824 l 392 371 l 565 371 l 565 251 l 392 251 l 392 0 l 250 0 l 250 251 z "},"•":{"ha":524,"x_min":39,"x_max":485,"o":"m 39 472 q 56 559 39 518 q 104 631 74 600 q 175 678 135 661 q 261 696 215 696 q 348 678 307 696 q 419 631 389 661 q 467 559 450 600 q 485 472 485 518 q 467 386 485 426 q 419 315 450 346 q 348 267 389 285 q 261 250 307 250 q 175 267 215 250 q 104 315 135 285 q 56 386 74 346 q 39 472 39 426 z "},"…":{"ha":744,"x_min":35,"x_max":711,"o":"m 35 81 q 62 144 35 118 q 126 171 89 171 q 189 144 163 171 q 215 81 215 118 q 189 18 215 44 q 126 -8 163 -8 q 62 18 89 -8 q 35 81 35 44 m 283 81 q 310 144 283 118 q 375 171 338 171 q 438 144 411 171 q 464 81 464 118 q 438 18 464 44 q 375 -8 411 -8 q 310 18 338 -8 q 283 81 283 44 m 531 81 q 558 144 531 118 q 622 171 585 171 q 685 144 658 171 q 711 81 711 118 q 685 18 711 44 q 622 -8 658 -8 q 558 18 585 -8 q 531 81 531 44 z "},"‰":{"ha":2054,"x_min":65,"x_max":1978,"o":"m 935 1169 l 1047 1117 l 542 -17 l 429 36 l 935 1169 m 919 622 q 958 747 919 708 q 1082 785 996 785 l 1254 785 q 1379 747 1340 785 q 1418 622 1418 708 l 1418 163 q 1379 38 1418 76 q 1254 0 1340 0 l 1082 0 q 958 38 996 0 q 919 163 919 76 l 919 622 m 1479 621 q 1517 745 1479 707 q 1642 783 1556 783 l 1815 783 q 1940 745 1901 783 q 1978 621 1978 707 l 1978 161 q 1940 37 1978 75 q 1815 -1 1901 -1 l 1642 -1 q 1517 37 1556 -1 q 1479 161 1479 75 l 1479 621 m 65 990 q 103 1115 65 1076 q 228 1153 142 1153 l 401 1153 q 526 1115 488 1153 q 564 990 564 1076 l 564 531 q 526 406 564 444 q 401 368 488 368 l 228 368 q 103 406 142 368 q 65 531 65 444 l 65 990 m 1254 111 q 1289 119 1281 111 q 1297 154 1297 128 l 1297 631 q 1289 665 1297 657 q 1254 674 1281 674 l 1082 674 q 1047 665 1056 674 q 1039 631 1039 657 l 1039 154 q 1047 119 1039 128 q 1082 111 1056 111 l 1254 111 m 1814 110 q 1850 118 1842 110 q 1858 153 1858 126 l 1858 629 q 1850 664 1858 656 q 1814 672 1842 672 l 1643 672 q 1607 664 1615 672 q 1599 629 1599 656 l 1599 153 q 1607 118 1599 126 q 1643 110 1615 110 l 1814 110 m 400 479 q 436 488 428 479 q 444 522 444 496 l 444 999 q 436 1033 444 1025 q 400 1042 428 1042 l 229 1042 q 193 1033 201 1042 q 185 999 185 1025 l 185 522 q 193 488 185 496 q 229 479 201 479 l 400 479 z "},"‹":{"ha":403,"x_min":32,"x_max":349,"o":"m 32 486 l 233 835 l 349 769 l 186 486 l 349 203 l 233 138 l 32 486 z "},"›":{"ha":403,"x_min":54,"x_max":371,"o":"m 217 486 l 54 769 l 169 835 l 371 486 l 169 138 l 54 203 l 217 486 z "},"⁄":{"ha":294,"x_min":-161,"x_max":456,"o":"m 344 1169 l 456 1117 l -49 -17 l -161 36 l 344 1169 z "},"€":{"ha":875,"x_min":0,"x_max":635,"o":"m 0 751 l 68 751 l 68 958 q 113 1107 68 1061 q 261 1153 158 1153 l 635 1153 l 635 1022 l 272 1022 q 224 1008 239 1022 q 210 960 210 993 l 210 751 l 557 751 l 557 643 l 210 643 l 210 510 l 499 510 l 499 401 l 210 401 l 210 193 q 224 145 210 160 q 272 131 239 131 l 635 131 l 635 0 l 261 0 q 113 46 158 0 q 68 194 68 92 l 68 401 l 0 401 l 0 510 l 68 510 l 68 643 l 0 643 l 0 751 z "},"™":{"ha":1013,"x_min":65,"x_max":936,"o":"m 200 1042 l 65 1042 l 65 1153 l 454 1153 l 454 1042 l 318 1042 l 318 583 l 200 583 l 200 1042 m 683 675 l 617 900 l 617 583 l 497 583 l 497 1153 l 640 1153 l 717 885 l 793 1153 l 936 1153 l 936 583 l 815 583 l 815 901 l 749 675 l 683 675 z "},"−":{"ha":788,"x_min":47,"x_max":740,"o":"m 47 707 l 740 707 l 740 588 l 47 588 l 47 707 z "},"":{"ha":1288,"x_min":29,"x_max":1258,"o":"m 29 721 l 644 1169 l 1258 721 l 1024 0 l 264 0 l 29 721 m 644 131 l 922 131 l 1099 669 l 644 1001 l 189 669 l 364 132 l 644 525 l 644 131 z "},"ﬁ":{"ha":708,"x_min":1,"x_max":644,"o":"m 76 825 l 1 825 l 1 944 l 76 944 l 76 1024 q 117 1154 76 1114 q 247 1194 157 1194 l 421 1194 l 421 1075 l 256 1075 q 207 1028 207 1075 l 207 944 l 618 944 l 618 0 l 486 0 l 486 825 l 207 825 l 207 -236 l 76 -236 l 76 825 m 460 1139 q 487 1205 460 1178 q 553 1232 514 1232 q 618 1205 592 1232 q 644 1139 644 1178 q 618 1074 644 1101 q 553 1047 592 1047 q 487 1074 514 1047 q 460 1139 460 1101 z "},"ﬂ":{"ha":706,"x_min":1,"x_max":629,"o":"m 76 825 l 1 825 l 1 944 l 76 944 l 76 1024 q 117 1154 76 1114 q 247 1194 157 1194 l 629 1194 l 629 0 l 499 0 l 499 1075 l 256 1075 q 207 1028 207 1075 l 207 944 l 351 944 l 351 825 l 207 825 l 207 -236 l 76 -236 l 76 825 z "}}}
